SeN-CB.ufo
<glyph name="quotedbl" format="2">
  <advance width="370"/>
  <unicode hex="0022"/>
  <outline>
    <contour>
      <point x="304" y="777" type="line"/>
      <point x="202" y="777" type="line"/>
      <point x="216" y="542" type="line"/>
      <point x="289" y="542" type="line"/>
    </contour>
    <contour>
      <point x="171" y="777" type="line"/>
      <point x="68" y="777" type="line"/>
      <point x="84" y="542" type="line"/>
      <point x="157" y="542" type="line"/>
    </contour>
  </outline>
</glyph>
<glyph name="comma" format="2">
  <advance width="224"/>
  <unicode hex="002C"/>
  <outline>
    <contour>
      <point x="175" y="87" type="line"/>
      <point x="66" y="87" type="line"/>
      <point x="43" y="-149" type="line"/>
      <point x="123" y="-149" type="line"/>
    </contour>
  </outline>
</glyph>
<glyph name="slash" format="2">
  <advance width="344"/>
  <unicode hex="002F"/>
  <outline>
    <contour>
      <point x="325" y="798" type="line"/>
      <point x="239" y="798" type="line"/>
      <point x="19" y="-139" type="line"/>
      <point x="104" y="-139" type="line"/>
    </contour>
  </outline>
</glyph>
<glyph name="zero" format="2">
  <advance width="490"/>
  <unicode hex="0030"/>
  <outline>
    <contour>
      <point x="245" y="60" type="curve" smooth="yes"/>
      <point x="230" y="60"/>
      <point x="215" y="66"/>
      <point x="200" y="78" type="curve" smooth="yes"/>
      <point x="184" y="89"/>
      <point x="171" y="108"/>
      <point x="161" y="135" type="curve" smooth="yes"/>
      <point x="151" y="161"/>
      <point x="143" y="194"/>
      <point x="139" y="232" type="curve" smooth="yes"/>
      <point x="133" y="270"/>
      <point x="131" y="309"/>
      <point x="131" y="351" type="curve" smooth="yes"/>
      <point x="131" y="392"/>
      <point x="133" y="432"/>
      <point x="139" y="470" type="curve" smooth="yes"/>
      <point x="144" y="507"/>
      <point x="152" y="539"/>
      <point x="162" y="567" type="curve" smooth="yes"/>
      <point x="172" y="594"/>
      <point x="184" y="613"/>
      <point x="200" y="625" type="curve" smooth="yes"/>
      <point x="215" y="636"/>
      <point x="230" y="642"/>
      <point x="245" y="642" type="curve" smooth="yes"/>
      <point x="259" y="642"/>
      <point x="274" y="636"/>
      <point x="290" y="625" type="curve" smooth="yes"/>
      <point x="305" y="613"/>
      <point x="318" y="594"/>
      <point x="328" y="567" type="curve" smooth="yes"/>
      <point x="338" y="539"/>
      <point x="345" y="507"/>
      <point x="351" y="470" type="curve" smooth="yes"/>
      <point x="356" y="432"/>
      <point x="359" y="392"/>
      <point x="359" y="351" type="curve" smooth="yes"/>
      <point x="359" y="309"/>
      <point x="356" y="270"/>
      <point x="352" y="232" type="curve" smooth="yes"/>
      <point x="346" y="194"/>
      <point x="338" y="161"/>
      <point x="328" y="135" type="curve" smooth="yes"/>
      <point x="318" y="108"/>
      <point x="305" y="89"/>
      <point x="290" y="78" type="curve" smooth="yes"/>
      <point x="274" y="66"/>
      <point x="259" y="60"/>
    </contour>
    <contour>
      <point x="245" y="-17" type="curve" smooth="yes"/>
      <point x="273" y="-17"/>
      <point x="301" y="-9"/>
      <point x="329" y="7" type="curve" smooth="yes"/>
      <point x="357" y="23"/>
      <point x="379" y="48"/>
      <point x="397" y="82" type="curve" smooth="yes"/>
      <point x="415" y="116"/>
      <point x="428" y="156"/>
      <point x="437" y="204" type="curve" smooth="yes"/>
      <point x="445" y="250"/>
      <point x="450" y="299"/>
      <point x="450" y="351" type="curve" smooth="yes"/>
      <point x="450" y="401"/>
      <point x="445" y="450"/>
      <point x="437" y="498" type="curve" smooth="yes"/>
      <point x="428" y="545"/>
      <point x="415" y="586"/>
      <point x="397" y="620" type="curve" smooth="yes"/>
      <point x="379" y="654"/>
      <point x="356" y="679"/>
      <point x="329" y="695" type="curve" smooth="yes"/>
      <point x="301" y="711"/>
      <point x="273" y="719"/>
      <point x="245" y="719" type="curve" smooth="yes"/>
      <point x="217" y="719"/>
      <point x="189" y="711"/>
      <point x="162" y="695" type="curve" smooth="yes"/>
      <point x="134" y="679"/>
      <point x="111" y="654"/>
      <point x="93" y="620" type="curve" smooth="yes"/>
      <point x="75" y="586"/>
      <point x="61" y="545"/>
      <point x="53" y="498" type="curve" smooth="yes"/>
      <point x="44" y="450"/>
      <point x="40" y="401"/>
      <point x="40" y="351" type="curve" smooth="yes"/>
      <point x="40" y="299"/>
      <point x="44" y="250"/>
      <point x="53" y="204" type="curve" smooth="yes"/>
      <point x="61" y="156"/>
      <point x="75" y="116"/>
      <point x="93" y="82" type="curve" smooth="yes"/>
      <point x="110" y="48"/>
      <point x="133" y="23"/>
      <point x="161" y="7" type="curve" smooth="yes"/>
      <point x="189" y="-9"/>
      <point x="217" y="-17"/>
    </contour>
  </outline>
</glyph>
<glyph name="two" format="2">
  <advance width="490"/>
  <unicode hex="0032"/>
  <outline>
    <contour>
      <point x="445" y="0" type="line"/>
      <point x="445" y="82" type="line"/>
      <point x="167" y="82" type="line"/>
      <point x="217" y="134"/>
      <point x="265" y="188"/>
      <point x="310" y="244" type="curve" smooth="yes"/>
      <point x="354" y="299"/>
      <point x="388" y="354"/>
      <point x="412" y="408" type="curve" smooth="yes"/>
      <point x="418" y="422"/>
      <point x="423" y="438"/>
      <point x="427" y="458" type="curve" smooth="yes"/>
      <point x="430" y="477"/>
      <point x="432" y="497"/>
      <point x="432" y="518" type="curve" smooth="yes"/>
      <point x="432" y="548"/>
      <point x="427" y="576"/>
      <point x="419" y="600" type="curve" smooth="yes"/>
      <point x="409" y="624"/>
      <point x="396" y="645"/>
      <point x="380" y="663" type="curve" smooth="yes"/>
      <point x="364" y="680"/>
      <point x="344" y="693"/>
      <point x="320" y="703" type="curve" smooth="yes"/>
      <point x="295" y="711"/>
      <point x="271" y="716"/>
      <point x="248" y="716" type="curve" smooth="yes"/>
      <point x="210" y="716"/>
      <point x="177" y="709"/>
      <point x="150" y="695" type="curve" smooth="yes"/>
      <point x="122" y="681"/>
      <point x="101" y="664"/>
      <point x="88" y="644" type="curve" smooth="yes"/>
      <point x="64" y="608"/>
      <point x="53" y="563"/>
      <point x="53" y="510" type="curve"/>
      <point x="145" y="510" type="line"/>
      <point x="145" y="554"/>
      <point x="153" y="588"/>
      <point x="170" y="610" type="curve" smooth="yes"/>
      <point x="186" y="632"/>
      <point x="212" y="643"/>
      <point x="246" y="643" type="curve" smooth="yes"/>
      <point x="263" y="643"/>
      <point x="278" y="639"/>
      <point x="290" y="631" type="curve" smooth="yes"/>
      <point x="302" y="622"/>
      <point x="312" y="611"/>
      <point x="320" y="599" type="curve" smooth="yes"/>
      <point x="327" y="587"/>
      <point x="333" y="573"/>
      <point x="337" y="557" type="curve" smooth="yes"/>
      <point x="340" y="541"/>
      <point x="342" y="528"/>
      <point x="342" y="518" type="curve" smooth="yes"/>
      <point x="342" y="489"/>
      <point x="337" y="460"/>
      <point x="327" y="432" type="curve" smooth="yes"/>
      <point x="313" y="392"/>
      <point x="274" y="332"/>
      <point x="209" y="251" type="curve" smooth="yes"/>
      <point x="143" y="169"/>
      <point x="92" y="111"/>
      <point x="54" y="78" type="curve"/>
      <point x="54" y="0" type="line"/>
    </contour>
  </outline>
</glyph>
<glyph name="F" format="2">
  <advance width="457"/>
  <unicode hex="0046"/>
  <outline>
    <contour>
      <point x="430" y="632" type="line"/>
      <point x="430" y="713" type="line"/>
      <point x="62" y="713" type="line"/>
      <point x="62" y="0" type="line"/>
      <point x="152" y="0" type="line"/>
      <point x="152" y="332" type="line"/>
      <point x="420" y="332" type="line"/>
      <point x="420" y="413" type="line"/>
      <point x="152" y="413" type="line"/>
      <point x="152" y="632" type="line"/>
    </contour>
  </outline>
</glyph>
<glyph name="J" format="2">
  <advance width="343"/>
  <unicode hex="004A"/>
  <outline>
    <contour>
      <point x="281" y="161" type="curve" smooth="yes"/>
      <point x="281" y="713" type="line"/>
      <point x="191" y="713" type="line"/>
      <point x="191" y="172" type="line" smooth="yes"/>
      <point x="191" y="152"/>
      <point x="188" y="136"/>
      <point x="184" y="124" type="curve" smooth="yes"/>
      <point x="178" y="111"/>
      <point x="172" y="101"/>
      <point x="166" y="94" type="curve" smooth="yes"/>
      <point x="158" y="86"/>
      <point x="151" y="81"/>
      <point x="144" y="78" type="curve" smooth="yes"/>
      <point x="136" y="74"/>
      <point x="128" y="71"/>
      <point x="122" y="70" type="curve" smooth="yes"/>
      <point x="117" y="69"/>
      <point x="113" y="69"/>
      <point x="109" y="69" type="curve" smooth="yes"/>
      <point x="105" y="69"/>
      <point x="101" y="69"/>
      <point x="98" y="69" type="curve" smooth="yes"/>
      <point x="84" y="69"/>
      <point x="69" y="71"/>
      <point x="53" y="75" type="curve" smooth="yes"/>
      <point x="37" y="78"/>
      <point x="20" y="83"/>
      <point x="3" y="90" type="curve"/>
      <point x="3" y="3" type="line"/>
      <point x="18" y="-2"/>
      <point x="32" y="-6"/>
      <point x="46" y="-8" type="curve" smooth="yes"/>
      <point x="59" y="-10"/>
      <point x="74" y="-11"/>
      <point x="92" y="-11" type="curve" smooth="yes"/>
      <point x="130" y="-11"/>
      <point x="162" y="-5"/>
      <point x="186" y="5" type="curve" smooth="yes"/>
      <point x="210" y="15"/>
      <point x="229" y="29"/>
      <point x="244" y="46" type="curve" smooth="yes"/>
      <point x="256" y="61"/>
      <point x="266" y="79"/>
      <point x="272" y="101" type="curve" smooth="yes"/>
      <point x="278" y="121"/>
      <point x="281" y="141"/>
    </contour>
  </outline>
</glyph>
<glyph name="M" format="2">
  <advance width="731"/>
  <unicode hex="004D"/>
  <outline>
    <contour>
      <point x="669" y="0" type="line"/>
      <point x="669" y="713" type="line"/>
      <point x="552" y="713" type="line"/>
      <point x="366" y="132" type="line"/>
      <point x="178" y="713" type="line"/>
      <point x="62" y="713" type="line"/>
      <point x="62" y="0" type="line"/>
      <point x="146" y="0" type="line"/>
      <point x="146" y="569" type="line"/>
      <point x="329" y="0" type="line"/>
      <point x="401" y="0" type="line"/>
      <point x="585" y="569" type="line"/>
      <point x="585" y="0" type="line"/>
    </contour>
  </outline>
</glyph>
<glyph name="N" format="2">
  <advance width="579"/>
  <unicode hex="004E"/>
  <outline>
    <contour>
      <point x="517" y="0" type="line"/>
      <point x="517" y="713" type="line"/>
      <point x="431" y="713" type="line"/>
      <point x="431" y="144" type="line"/>
      <point x="162" y="713" type="line"/>
      <point x="62" y="713" type="line"/>
      <point x="62" y="0" type="line"/>
      <point x="148" y="0" type="line"/>
      <point x="148" y="568" type="line"/>
      <point x="416" y="0" type="line"/>
    </contour>
  </outline>
</glyph>
<glyph name="P" format="2">
  <advance width="512"/>
  <unicode hex="0050"/>
  <outline>
    <contour>
      <point x="485" y="501" type="curve" smooth="yes"/>
      <point x="485" y="540"/>
      <point x="478" y="574"/>
      <point x="464" y="602" type="curve" smooth="yes"/>
      <point x="449" y="630"/>
      <point x="430" y="652"/>
      <point x="406" y="668" type="curve" smooth="yes"/>
      <point x="383" y="682"/>
      <point x="358" y="694"/>
      <point x="331" y="702" type="curve" smooth="yes"/>
      <point x="303" y="709"/>
      <point x="274" y="713"/>
      <point x="244" y="713" type="curve" smooth="yes"/>
      <point x="62" y="713" type="line"/>
      <point x="62" y="0" type="line"/>
      <point x="152" y="0" type="line"/>
      <point x="152" y="633" type="line"/>
      <point x="244" y="633" type="line" smooth="yes"/>
      <point x="261" y="633"/>
      <point x="279" y="631"/>
      <point x="297" y="627" type="curve" smooth="yes"/>
      <point x="314" y="622"/>
      <point x="330" y="614"/>
      <point x="345" y="604" type="curve" smooth="yes"/>
      <point x="358" y="594"/>
      <point x="370" y="582"/>
      <point x="380" y="566" type="curve" smooth="yes"/>
      <point x="390" y="549"/>
      <point x="395" y="527"/>
      <point x="395" y="501" type="curve" smooth="yes"/>
      <point x="395" y="479"/>
      <point x="390" y="459"/>
      <point x="381" y="442" type="curve" smooth="yes"/>
      <point x="371" y="424"/>
      <point x="359" y="409"/>
      <point x="345" y="399" type="curve" smooth="yes"/>
      <point x="332" y="389"/>
      <point x="317" y="382"/>
      <point x="299" y="379" type="curve" smooth="yes"/>
      <point x="281" y="375"/>
      <point x="261" y="373"/>
      <point x="241" y="373" type="curve" smooth="yes"/>
      <point x="182" y="373" type="line"/>
      <point x="182" y="289" type="line"/>
      <point x="243" y="289" type="line" smooth="yes"/>
      <point x="273" y="289"/>
      <point x="303" y="292"/>
      <point x="332" y="300" type="curve" smooth="yes"/>
      <point x="360" y="307"/>
      <point x="385" y="319"/>
      <point x="408" y="335" type="curve" smooth="yes"/>
      <point x="430" y="351"/>
      <point x="449" y="374"/>
      <point x="464" y="403" type="curve" smooth="yes"/>
      <point x="478" y="431"/>
      <point x="485" y="464"/>
    </contour>
  </outline>
</glyph>
<glyph name="S" format="2">
  <advance width="467"/>
  <unicode hex="0053"/>
  <outline>
    <contour>
      <point x="441" y="195" type="curve" smooth="yes"/>
      <point x="439" y="226"/>
      <point x="434" y="252"/>
      <point x="425" y="273" type="curve" smooth="yes"/>
      <point x="415" y="293"/>
      <point x="403" y="311"/>
      <point x="387" y="326" type="curve" smooth="yes"/>
      <point x="371" y="340"/>
      <point x="352" y="354"/>
      <point x="330" y="370" type="curve" smooth="yes"/>
      <point x="306" y="385"/>
      <point x="272" y="405"/>
      <point x="226" y="429" type="curve" smooth="yes"/>
      <point x="212" y="437"/>
      <point x="200" y="445"/>
      <point x="188" y="453" type="curve" smooth="yes"/>
      <point x="175" y="461"/>
      <point x="164" y="470"/>
      <point x="154" y="480" type="curve" smooth="yes"/>
      <point x="145" y="488"/>
      <point x="137" y="498"/>
      <point x="131" y="509" type="curve" smooth="yes"/>
      <point x="124" y="519"/>
      <point x="121" y="532"/>
      <point x="121" y="546" type="curve" smooth="yes"/>
      <point x="121" y="578"/>
      <point x="132" y="604"/>
      <point x="154" y="622" type="curve" smooth="yes"/>
      <point x="175" y="640"/>
      <point x="201" y="649"/>
      <point x="233" y="649" type="curve" smooth="yes"/>
      <point x="263" y="649"/>
      <point x="294" y="644"/>
      <point x="326" y="634" type="curve" smooth="yes"/>
      <point x="358" y="624"/>
      <point x="382" y="614"/>
      <point x="400" y="604" type="curve"/>
      <point x="400" y="693" type="line"/>
      <point x="378" y="700"/>
      <point x="355" y="707"/>
      <point x="331" y="713" type="curve" smooth="yes"/>
      <point x="317" y="716"/>
      <point x="303" y="719"/>
      <point x="288" y="722" type="curve" smooth="yes"/>
      <point x="272" y="724"/>
      <point x="256" y="726"/>
      <point x="240" y="726" type="curve" smooth="yes"/>
      <point x="178" y="726"/>
      <point x="128" y="711"/>
      <point x="90" y="681" type="curve" smooth="yes"/>
      <point x="50" y="651"/>
      <point x="31" y="603"/>
      <point x="31" y="539" type="curve" smooth="yes"/>
      <point x="31" y="511"/>
      <point x="37" y="486"/>
      <point x="50" y="464" type="curve" smooth="yes"/>
      <point x="62" y="442"/>
      <point x="79" y="422"/>
      <point x="100" y="406" type="curve" smooth="yes"/>
      <point x="120" y="388"/>
      <point x="142" y="373"/>
      <point x="165" y="361" type="curve" smooth="yes"/>
      <point x="187" y="348"/>
      <point x="208" y="336"/>
      <point x="228" y="326" type="curve" smooth="yes"/>
      <point x="255" y="312"/>
      <point x="281" y="294"/>
      <point x="306" y="273" type="curve" smooth="yes"/>
      <point x="317" y="262"/>
      <point x="327" y="250"/>
      <point x="336" y="236" type="curve" smooth="yes"/>
      <point x="344" y="221"/>
      <point x="349" y="203"/>
      <point x="349" y="183" type="curve" smooth="yes"/>
      <point x="349" y="161"/>
      <point x="344" y="142"/>
      <point x="335" y="128" type="curve" smooth="yes"/>
      <point x="325" y="113"/>
      <point x="314" y="102"/>
      <point x="302" y="94" type="curve" smooth="yes"/>
      <point x="288" y="84"/>
      <point x="274" y="78"/>
      <point x="258" y="75" type="curve" smooth="yes"/>
      <point x="242" y="71"/>
      <point x="225" y="69"/>
      <point x="207" y="69" type="curve" smooth="yes"/>
      <point x="190" y="69"/>
      <point x="173" y="71"/>
      <point x="156" y="75" type="curve" smooth="yes"/>
      <point x="138" y="79"/>
      <point x="122" y="83"/>
      <point x="108" y="88" type="curve" smooth="yes"/>
      <point x="83" y="95"/>
      <point x="59" y="104"/>
      <point x="37" y="116" type="curve"/>
      <point x="37" y="20" type="line"/>
      <point x="59" y="12"/>
      <point x="84" y="5"/>
      <point x="114" y="-1" type="curve" smooth="yes"/>
      <point x="142" y="-7"/>
      <point x="171" y="-11"/>
      <point x="199" y="-11" type="curve" smooth="yes"/>
      <point x="273" y="-11"/>
      <point x="332" y="6"/>
      <point x="376" y="40" type="curve" smooth="yes"/>
      <point x="419" y="73"/>
      <point x="441" y="125"/>
    </contour>
  </outline>
</glyph>
<glyph name="bracketleft" format="2">
  <advance width="318"/>
  <unicode hex="005B"/>
  <outline>
    <contour>
      <point x="288" y="-139" type="line"/>
      <point x="288" y="-67" type="line"/>
      <point x="191" y="-67" type="line"/>
      <point x="191" y="726" type="line"/>
      <point x="288" y="726" type="line"/>
      <point x="288" y="798" type="line"/>
      <point x="104" y="798" type="line"/>
      <point x="104" y="-139" type="line"/>
    </contour>
  </outline>
</glyph>
<glyph name="backslash" format="2">
  <advance width="890"/>
  <unicode hex="005C"/>
  <outline>
    <contour>
      <point x="850" y="349" type="line"/>
      <point x="850" y="416" type="line"/>
      <point x="729" y="416" type="line"/>
      <point x="778" y="688" type="line"/>
      <point x="697" y="688" type="line"/>
      <point x="650" y="416" type="line"/>
      <point x="546" y="416" type="line"/>
      <point x="490" y="688" type="line"/>
      <point x="405" y="688" type="line"/>
      <point x="349" y="416" type="line"/>
      <point x="245" y="416" type="line"/>
      <point x="198" y="688" type="line"/>
      <point x="117" y="688" type="line"/>
      <point x="166" y="416" type="line"/>
      <point x="46" y="416" type="line"/>
      <point x="46" y="349" type="line"/>
      <point x="179" y="349" type="line"/>
      <point x="242" y="0" type="line"/>
      <point x="334" y="0" type="line"/>
      <point x="407" y="349" type="line"/>
      <point x="488" y="349" type="line"/>
      <point x="561" y="0" type="line"/>
      <point x="653" y="0" type="line"/>
      <point x="716" y="349" type="line"/>
    </contour>
    <contour>
      <point x="639" y="349" type="line"/>
      <point x="603" y="141" type="line"/>
      <point x="560" y="349" type="line"/>
    </contour>
    <contour>
      <point x="335" y="349" type="line"/>
      <point x="292" y="141" type="line"/>
      <point x="256" y="349" type="line"/>
    </contour>
    <contour>
      <point x="421" y="416" type="line"/>
      <point x="447" y="542" type="line"/>
      <point x="474" y="416" type="line"/>
    </contour>
  </outline>
</glyph>
<glyph name="asciicircum" format="2">
  <advance width="423"/>
  <unicode hex="005E"/>
  <outline>
    <contour>
      <point x="173" y="734" type="line"/>
      <point x="35" y="492" type="line"/>
      <point x="122" y="492" type="line"/>
      <point x="213" y="654" type="line"/>
      <point x="301" y="492" type="line"/>
      <point x="389" y="492" type="line"/>
      <point x="252" y="734" type="line"/>
    </contour>
  </outline>
</glyph>
<glyph name="grave" format="2">
  <advance width="274"/>
  <unicode hex="0060"/>
  <outline>
    <contour>
      <point x="204" y="537" type="line"/>
      <point x="144" y="719" type="line"/>
      <point x="43" y="719" type="line"/>
      <point x="127" y="537" type="line"/>
    </contour>
  </outline>
</glyph>
<glyph name="b" format="2">
  <advance width="500"/>
  <unicode hex="0062"/>
  <outline>
    <contour>
      <point x="378" y="252" type="curve" smooth="yes"/>
      <point x="378" y="226"/>
      <point x="375" y="200"/>
      <point x="370" y="176" type="curve" smooth="yes"/>
      <point x="364" y="151"/>
      <point x="355" y="130"/>
      <point x="345" y="113" type="curve" smooth="yes"/>
      <point x="335" y="95"/>
      <point x="322" y="83"/>
      <point x="307" y="75" type="curve" smooth="yes"/>
      <point x="291" y="66"/>
      <point x="275" y="62"/>
      <point x="261" y="62" type="curve" smooth="yes"/>
      <point x="246" y="62"/>
      <point x="231" y="66"/>
      <point x="216" y="75" type="curve" smooth="yes"/>
      <point x="200" y="83"/>
      <point x="188" y="95"/>
      <point x="178" y="113" type="curve" smooth="yes"/>
      <point x="167" y="130"/>
      <point x="159" y="151"/>
      <point x="154" y="176" type="curve" smooth="yes"/>
      <point x="148" y="200"/>
      <point x="145" y="226"/>
      <point x="145" y="252" type="curve" smooth="yes"/>
      <point x="145" y="278"/>
      <point x="148" y="303"/>
      <point x="155" y="327" type="curve" smooth="yes"/>
      <point x="161" y="350"/>
      <point x="169" y="370"/>
      <point x="180" y="388" type="curve" smooth="yes"/>
      <point x="190" y="404"/>
      <point x="202" y="417"/>
      <point x="217" y="427" type="curve" smooth="yes"/>
      <point x="231" y="437"/>
      <point x="246" y="442"/>
      <point x="261" y="442" type="curve" smooth="yes"/>
      <point x="275" y="442"/>
      <point x="290" y="437"/>
      <point x="306" y="429" type="curve" smooth="yes"/>
      <point x="321" y="420"/>
      <point x="334" y="407"/>
      <point x="345" y="391" type="curve" smooth="yes"/>
      <point x="355" y="373"/>
      <point x="364" y="352"/>
      <point x="370" y="328" type="curve" smooth="yes"/>
      <point x="375" y="303"/>
      <point x="378" y="278"/>
    </contour>
    <contour>
      <point x="262" y="-11" type="curve" smooth="yes"/>
      <point x="294" y="-11"/>
      <point x="324" y="-5"/>
      <point x="351" y="6" type="curve" smooth="yes"/>
      <point x="377" y="17"/>
      <point x="398" y="34"/>
      <point x="415" y="58" type="curve" smooth="yes"/>
      <point x="431" y="80"/>
      <point x="444" y="108"/>
      <point x="454" y="142" type="curve" smooth="yes"/>
      <point x="463" y="176"/>
      <point x="468" y="214"/>
      <point x="468" y="257" type="curve" smooth="yes"/>
      <point x="468" y="290"/>
      <point x="464" y="322"/>
      <point x="457" y="354" type="curve" smooth="yes"/>
      <point x="449" y="385"/>
      <point x="437" y="413"/>
      <point x="421" y="437" type="curve" smooth="yes"/>
      <point x="404" y="461"/>
      <point x="382" y="480"/>
      <point x="356" y="495" type="curve" smooth="yes"/>
      <point x="328" y="509"/>
      <point x="299" y="516"/>
      <point x="267" y="516" type="curve" smooth="yes"/>
      <point x="215" y="516"/>
      <point x="174" y="494"/>
      <point x="144" y="450" type="curve"/>
      <point x="144" y="713" type="line"/>
      <point x="57" y="713" type="line"/>
      <point x="57" y="257" type="line" smooth="yes"/>
      <point x="57" y="214"/>
      <point x="61" y="176"/>
      <point x="71" y="142" type="curve" smooth="yes"/>
      <point x="80" y="108"/>
      <point x="93" y="80"/>
      <point x="110" y="58" type="curve" smooth="yes"/>
      <point x="126" y="34"/>
      <point x="148" y="17"/>
      <point x="174" y="6" type="curve" smooth="yes"/>
      <point x="199" y="-5"/>
      <point x="228" y="-11"/>
    </contour>
  </outline>
</glyph>
<glyph name="e" format="2">
  <advance width="472"/>
  <unicode hex="0065"/>
  <outline>
    <contour>
      <point x="125" y="295" type="line"/>
      <point x="129" y="337"/>
      <point x="141" y="370"/>
      <point x="161" y="396" type="curve" smooth="yes"/>
      <point x="185" y="427"/>
      <point x="214" y="443"/>
      <point x="250" y="443" type="curve" smooth="yes"/>
      <point x="267" y="443"/>
      <point x="282" y="439"/>
      <point x="296" y="431" type="curve" smooth="yes"/>
      <point x="309" y="422"/>
      <point x="319" y="411"/>
      <point x="327" y="398" type="curve" smooth="yes"/>
      <point x="339" y="371"/>
      <point x="346" y="337"/>
      <point x="346" y="295" type="curve"/>
    </contour>
    <contour>
      <point x="127" y="222" type="line"/>
      <point x="436" y="222" type="line"/>
      <point x="436" y="277" type="line" smooth="yes"/>
      <point x="436" y="354"/>
      <point x="422" y="411"/>
      <point x="395" y="448" type="curve" smooth="yes"/>
      <point x="380" y="468"/>
      <point x="360" y="484"/>
      <point x="334" y="497" type="curve" smooth="yes"/>
      <point x="307" y="509"/>
      <point x="279" y="516"/>
      <point x="250" y="516" type="curve" smooth="yes"/>
      <point x="214" y="516"/>
      <point x="182" y="509"/>
      <point x="156" y="496" type="curve" smooth="yes"/>
      <point x="128" y="482"/>
      <point x="106" y="465"/>
      <point x="88" y="443" type="curve" smooth="yes"/>
      <point x="70" y="421"/>
      <point x="56" y="394"/>
      <point x="47" y="364" type="curve" smooth="yes"/>
      <point x="37" y="333"/>
      <point x="32" y="299"/>
      <point x="32" y="263" type="curve" smooth="yes"/>
      <point x="32" y="217"/>
      <point x="38" y="178"/>
      <point x="52" y="144" type="curve" smooth="yes"/>
      <point x="64" y="110"/>
      <point x="80" y="81"/>
      <point x="100" y="59" type="curve" smooth="yes"/>
      <point x="116" y="41"/>
      <point x="137" y="25"/>
      <point x="163" y="13" type="curve" smooth="yes"/>
      <point x="189" y="0"/>
      <point x="215" y="-7"/>
      <point x="242" y="-10" type="curve" smooth="yes"/>
      <point x="272" y="-13"/>
      <point x="303" y="-12"/>
      <point x="334" y="-7" type="curve" smooth="yes"/>
      <point x="364" y="-1"/>
      <point x="393" y="9"/>
      <point x="422" y="27" type="curve"/>
      <point x="422" y="102" type="line"/>
      <point x="391" y="84"/>
      <point x="365" y="74"/>
      <point x="344" y="70" type="curve" smooth="yes"/>
      <point x="322" y="65"/>
      <point x="305" y="63"/>
      <point x="291" y="63" type="curve" smooth="yes"/>
      <point x="272" y="63"/>
      <point x="256" y="65"/>
      <point x="242" y="69" type="curve" smooth="yes"/>
      <point x="228" y="72"/>
      <point x="217" y="76"/>
      <point x="211" y="81" type="curve" smooth="yes"/>
      <point x="191" y="93"/>
      <point x="175" y="107"/>
      <point x="164" y="124" type="curve" smooth="yes"/>
      <point x="152" y="140"/>
      <point x="144" y="156"/>
      <point x="138" y="174" type="curve" smooth="yes"/>
      <point x="132" y="188"/>
      <point x="129" y="203"/>
      <point x="127" y="219" type="curve" smooth="yes"/>
    </contour>
  </outline>
</glyph>
<glyph name="f" format="2">
  <advance width="350"/>
  <unicode hex="0066"/>
  <outline>
    <contour>
      <point x="353" y="636" type="curve"/>
      <point x="353" y="714" type="line"/>
      <point x="338" y="716"/>
      <point x="323" y="719"/>
      <point x="309" y="722" type="curve" smooth="yes"/>
      <point x="293" y="724"/>
      <point x="277" y="726"/>
      <point x="259" y="726" type="curve" smooth="yes"/>
      <point x="221" y="725"/>
      <point x="191" y="719"/>
      <point x="171" y="707" type="curve" smooth="yes"/>
      <point x="150" y="694"/>
      <point x="134" y="679"/>
      <point x="123" y="661" type="curve" smooth="yes"/>
      <point x="111" y="641"/>
      <point x="105" y="619"/>
      <point x="103" y="597" type="curve" smooth="yes"/>
      <point x="100" y="574"/>
      <point x="99" y="552"/>
      <point x="99" y="530" type="curve" smooth="yes"/>
      <point x="99" y="504" type="line"/>
      <point x="19" y="504" type="line"/>
      <point x="19" y="431" type="line"/>
      <point x="99" y="431" type="line"/>
      <point x="99" y="0" type="line"/>
      <point x="189" y="0" type="line"/>
      <point x="189" y="431" type="line"/>
      <point x="320" y="431" type="line"/>
      <point x="320" y="504" type="line"/>
      <point x="189" y="504" type="line"/>
      <point x="189" y="549" type="line" smooth="yes"/>
      <point x="189" y="564"/>
      <point x="190" y="577"/>
      <point x="192" y="589" type="curve" smooth="yes"/>
      <point x="193" y="600"/>
      <point x="196" y="610"/>
      <point x="201" y="620" type="curve" smooth="yes"/>
      <point x="208" y="632"/>
      <point x="216" y="641"/>
      <point x="226" y="646" type="curve" smooth="yes"/>
      <point x="234" y="650"/>
      <point x="247" y="653"/>
      <point x="263" y="653" type="curve" smooth="yes"/>
      <point x="277" y="653"/>
      <point x="291" y="651"/>
      <point x="305" y="649" type="curve" smooth="yes"/>
      <point x="318" y="646"/>
      <point x="334" y="642"/>
    </contour>
  </outline>
</glyph>
<glyph name="i" format="2">
  <advance width="212"/>
  <unicode hex="0069"/>
  <outline>
    <contour>
      <point x="157" y="603" type="line"/>
      <point x="157" y="713" type="line"/>
      <point x="53" y="713" type="line"/>
      <point x="53" y="603" type="line"/>
    </contour>
    <contour>
      <point x="151" y="0" type="line"/>
      <point x="151" y="504" type="line"/>
      <point x="61" y="504" type="line"/>
      <point x="61" y="0" type="line"/>
    </contour>
  </outline>
</glyph>
<glyph name="k" format="2">
  <advance width="460"/>
  <unicode hex="006B"/>
  <outline>
    <contour>
      <point x="452" y="0" type="line"/>
      <point x="213" y="279" type="line"/>
      <point x="447" y="504" type="line"/>
      <point x="332" y="504" type="line"/>
      <point x="144" y="316" type="line"/>
      <point x="144" y="713" type="line"/>
      <point x="57" y="713" type="line"/>
      <point x="57" y="0" type="line"/>
      <point x="144" y="0" type="line"/>
      <point x="144" y="228" type="line"/>
      <point x="342" y="0" type="line"/>
    </contour>
  </outline>
</glyph>
<glyph name="o" format="2">
  <advance width="500"/>
  <unicode hex="006F"/>
  <outline>
    <contour>
      <point x="376" y="252" type="curve" smooth="yes"/>
      <point x="376" y="226"/>
      <point x="373" y="200"/>
      <point x="367" y="176" type="curve" smooth="yes"/>
      <point x="361" y="150"/>
      <point x="352" y="129"/>
      <point x="341" y="112" type="curve" smooth="yes"/>
      <point x="329" y="94"/>
      <point x="316" y="82"/>
      <point x="300" y="74" type="curve" smooth="yes"/>
      <point x="283" y="65"/>
      <point x="266" y="61"/>
      <point x="250" y="61" type="curve" smooth="yes"/>
      <point x="233" y="61"/>
      <point x="217" y="65"/>
      <point x="201" y="74" type="curve" smooth="yes"/>
      <point x="184" y="82"/>
      <point x="170" y="94"/>
      <point x="159" y="112" type="curve" smooth="yes"/>
      <point x="147" y="129"/>
      <point x="139" y="150"/>
      <point x="133" y="176" type="curve" smooth="yes"/>
      <point x="127" y="200"/>
      <point x="124" y="226"/>
      <point x="124" y="252" type="curve" smooth="yes"/>
      <point x="124" y="278"/>
      <point x="127" y="303"/>
      <point x="133" y="329" type="curve" smooth="yes"/>
      <point x="139" y="354"/>
      <point x="147" y="375"/>
      <point x="159" y="393" type="curve" smooth="yes"/>
      <point x="170" y="410"/>
      <point x="184" y="423"/>
      <point x="201" y="432" type="curve" smooth="yes"/>
      <point x="217" y="440"/>
      <point x="233" y="444"/>
      <point x="250" y="444" type="curve" smooth="yes"/>
      <point x="266" y="444"/>
      <point x="283" y="440"/>
      <point x="300" y="432" type="curve" smooth="yes"/>
      <point x="316" y="423"/>
      <point x="329" y="410"/>
      <point x="341" y="393" type="curve" smooth="yes"/>
      <point x="352" y="375"/>
      <point x="361" y="354"/>
      <point x="367" y="329" type="curve" smooth="yes"/>
      <point x="373" y="303"/>
      <point x="376" y="278"/>
    </contour>
    <contour>
      <point x="468" y="252" type="curve" smooth="yes"/>
      <point x="468" y="288"/>
      <point x="463" y="322"/>
      <point x="453" y="356" type="curve" smooth="yes"/>
      <point x="442" y="388"/>
      <point x="427" y="417"/>
      <point x="409" y="441" type="curve" smooth="yes"/>
      <point x="389" y="465"/>
      <point x="365" y="484"/>
      <point x="337" y="497" type="curve" smooth="yes"/>
      <point x="309" y="509"/>
      <point x="280" y="516"/>
      <point x="250" y="516" type="curve" smooth="yes"/>
      <point x="220" y="516"/>
      <point x="191" y="509"/>
      <point x="163" y="497" type="curve" smooth="yes"/>
      <point x="135" y="484"/>
      <point x="111" y="465"/>
      <point x="91" y="441" type="curve" smooth="yes"/>
      <point x="72" y="417"/>
      <point x="58" y="388"/>
      <point x="48" y="356" type="curve" smooth="yes"/>
      <point x="37" y="322"/>
      <point x="32" y="288"/>
      <point x="32" y="252" type="curve" smooth="yes"/>
      <point x="32" y="216"/>
      <point x="37" y="181"/>
      <point x="48" y="149" type="curve" smooth="yes"/>
      <point x="58" y="115"/>
      <point x="72" y="87"/>
      <point x="91" y="63" type="curve" smooth="yes"/>
      <point x="111" y="39"/>
      <point x="135" y="20"/>
      <point x="163" y="8" type="curve" smooth="yes"/>
      <point x="191" y="-4"/>
      <point x="220" y="-11"/>
      <point x="250" y="-11" type="curve" smooth="yes"/>
      <point x="280" y="-11"/>
      <point x="309" y="-4"/>
      <point x="337" y="8" type="curve" smooth="yes"/>
      <point x="365" y="20"/>
      <point x="389" y="39"/>
      <point x="409" y="63" type="curve" smooth="yes"/>
      <point x="427" y="87"/>
      <point x="442" y="115"/>
      <point x="453" y="149" type="curve" smooth="yes"/>
      <point x="463" y="181"/>
      <point x="468" y="216"/>
    </contour>
  </outline>
</glyph>
<glyph name="q" format="2">
  <advance width="500"/>
  <unicode hex="0071"/>
  <outline>
    <contour>
      <point x="32" y="259" type="curve" smooth="yes"/>
      <point x="32" y="216"/>
      <point x="37" y="178"/>
      <point x="48" y="146" type="curve" smooth="yes"/>
      <point x="58" y="112"/>
      <point x="71" y="85"/>
      <point x="87" y="64" type="curve" smooth="yes"/>
      <point x="103" y="40"/>
      <point x="124" y="23"/>
      <point x="150" y="11" type="curve" smooth="yes"/>
      <point x="175" y="-1"/>
      <point x="201" y="-7"/>
      <point x="229" y="-7" type="curve" smooth="yes"/>
      <point x="262" y="-7"/>
      <point x="290" y="0"/>
      <point x="313" y="16" type="curve" smooth="yes"/>
      <point x="335" y="31"/>
      <point x="349" y="43"/>
      <point x="356" y="53" type="curve"/>
      <point x="356" y="-166" type="line"/>
      <point x="443" y="-166" type="line"/>
      <point x="443" y="504" type="line"/>
      <point x="356" y="504" type="line"/>
      <point x="356" y="450" type="line"/>
      <point x="324" y="494"/>
      <point x="283" y="516"/>
      <point x="233" y="516" type="curve" smooth="yes"/>
      <point x="201" y="516"/>
      <point x="172" y="508"/>
      <point x="146" y="494" type="curve" smooth="yes"/>
      <point x="119" y="478"/>
      <point x="97" y="459"/>
      <point x="81" y="435" type="curve" smooth="yes"/>
      <point x="65" y="411"/>
      <point x="53" y="384"/>
      <point x="45" y="354" type="curve" smooth="yes"/>
      <point x="36" y="324"/>
      <point x="32" y="292"/>
    </contour>
    <contour>
      <point x="122" y="254" type="curve" smooth="yes"/>
      <point x="122" y="280"/>
      <point x="125" y="304"/>
      <point x="132" y="328" type="curve" smooth="yes"/>
      <point x="138" y="351"/>
      <point x="146" y="371"/>
      <point x="157" y="389" type="curve" smooth="yes"/>
      <point x="167" y="405"/>
      <point x="180" y="418"/>
      <point x="195" y="428" type="curve" smooth="yes"/>
      <point x="209" y="437"/>
      <point x="224" y="442"/>
      <point x="239" y="442" type="curve" smooth="yes"/>
      <point x="253" y="442"/>
      <point x="268" y="437"/>
      <point x="283" y="427" type="curve" smooth="yes"/>
      <point x="297" y="417"/>
      <point x="310" y="404"/>
      <point x="320" y="388" type="curve" smooth="yes"/>
      <point x="330" y="370"/>
      <point x="339" y="350"/>
      <point x="346" y="328" type="curve" smooth="yes"/>
      <point x="352" y="304"/>
      <point x="355" y="280"/>
      <point x="355" y="254" type="curve" smooth="yes"/>
      <point x="355" y="228"/>
      <point x="352" y="203"/>
      <point x="346" y="181" type="curve" smooth="yes"/>
      <point x="339" y="157"/>
      <point x="330" y="137"/>
      <point x="320" y="120" type="curve" smooth="yes"/>
      <point x="310" y="102"/>
      <point x="297" y="89"/>
      <point x="283" y="80" type="curve" smooth="yes"/>
      <point x="268" y="70"/>
      <point x="253" y="66"/>
      <point x="239" y="66" type="curve" smooth="yes"/>
      <point x="224" y="66"/>
      <point x="209" y="70"/>
      <point x="195" y="80" type="curve" smooth="yes"/>
      <point x="179" y="88"/>
      <point x="167" y="101"/>
      <point x="157" y="119" type="curve" smooth="yes"/>
      <point x="146" y="136"/>
      <point x="138" y="156"/>
      <point x="132" y="180" type="curve" smooth="yes"/>
      <point x="125" y="203"/>
      <point x="122" y="228"/>
    </contour>
  </outline>
</glyph>
<glyph name="s" format="2">
  <advance width="394"/>
  <unicode hex="0073"/>
  <outline>
    <contour>
      <point x="368" y="135" type="curve" smooth="yes"/>
      <point x="368" y="167"/>
      <point x="359" y="194"/>
      <point x="343" y="216" type="curve" smooth="yes"/>
      <point x="325" y="237"/>
      <point x="305" y="254"/>
      <point x="283" y="266" type="curve" smooth="yes"/>
      <point x="263" y="276"/>
      <point x="239" y="286"/>
      <point x="212" y="298" type="curve" smooth="yes"/>
      <point x="184" y="308"/>
      <point x="164" y="317"/>
      <point x="152" y="325" type="curve" smooth="yes"/>
      <point x="139" y="334"/>
      <point x="130" y="343"/>
      <point x="126" y="352" type="curve" smooth="yes"/>
      <point x="120" y="360"/>
      <point x="118" y="370"/>
      <point x="118" y="384" type="curve" smooth="yes"/>
      <point x="118" y="402"/>
      <point x="126" y="417"/>
      <point x="142" y="428" type="curve" smooth="yes"/>
      <point x="158" y="438"/>
      <point x="177" y="444"/>
      <point x="199" y="444" type="curve" smooth="yes"/>
      <point x="225" y="444"/>
      <point x="251" y="440"/>
      <point x="276" y="432" type="curve" smooth="yes"/>
      <point x="300" y="424"/>
      <point x="321" y="414"/>
      <point x="340" y="404" type="curve"/>
      <point x="340" y="492" type="line"/>
      <point x="292" y="508"/>
      <point x="247" y="516"/>
      <point x="205" y="516" type="curve" smooth="yes"/>
      <point x="153" y="516"/>
      <point x="112" y="503"/>
      <point x="80" y="479" type="curve" smooth="yes"/>
      <point x="48" y="454"/>
      <point x="32" y="419"/>
      <point x="32" y="375" type="curve" smooth="yes"/>
      <point x="32" y="342"/>
      <point x="40" y="316"/>
      <point x="57" y="296" type="curve" smooth="yes"/>
      <point x="73" y="276"/>
      <point x="90" y="261"/>
      <point x="109" y="252" type="curve" smooth="yes"/>
      <point x="131" y="240"/>
      <point x="155" y="230"/>
      <point x="179" y="221" type="curve" smooth="yes"/>
      <point x="202" y="211"/>
      <point x="221" y="203"/>
      <point x="235" y="195" type="curve" smooth="yes"/>
      <point x="249" y="187"/>
      <point x="260" y="178"/>
      <point x="268" y="168" type="curve" smooth="yes"/>
      <point x="276" y="157"/>
      <point x="280" y="144"/>
      <point x="280" y="130" type="curve" smooth="yes"/>
      <point x="280" y="108"/>
      <point x="268" y="90"/>
      <point x="246" y="76" type="curve" smooth="yes"/>
      <point x="230" y="67"/>
      <point x="205" y="63"/>
      <point x="171" y="63" type="curve" smooth="yes"/>
      <point x="151" y="63"/>
      <point x="127" y="67"/>
      <point x="100" y="77" type="curve" smooth="yes"/>
      <point x="72" y="85"/>
      <point x="49" y="96"/>
      <point x="30" y="109" type="curve"/>
      <point x="30" y="16" type="line"/>
      <point x="86" y="-2"/>
      <point x="133" y="-11"/>
      <point x="171" y="-11" type="curve" smooth="yes"/>
      <point x="203" y="-11"/>
      <point x="232" y="-7"/>
      <point x="260" y="-1" type="curve" smooth="yes"/>
      <point x="286" y="6"/>
      <point x="308" y="16"/>
      <point x="324" y="30" type="curve" smooth="yes"/>
      <point x="338" y="42"/>
      <point x="349" y="57"/>
      <point x="357" y="76" type="curve" smooth="yes"/>
      <point x="364" y="94"/>
      <point x="368" y="113"/>
    </contour>
  </outline>
</glyph>
<glyph name="bar" format="2">
  <advance width="303"/>
  <unicode hex="007C"/>
  <outline>
    <contour>
      <point x="191" y="-126" type="line"/>
      <point x="191" y="785" type="line"/>
      <point x="112" y="785" type="line"/>
      <point x="112" y="-126" type="line"/>
    </contour>
  </outline>
</glyph>
<glyph name="asciitilde" format="2">
  <advance width="524"/>
  <unicode hex="007E"/>
  <outline>
    <contour>
      <point x="490" y="434" type="curve"/>
      <point x="413" y="434" type="line"/>
      <point x="413" y="394"/>
      <point x="408" y="366"/>
      <point x="398" y="350" type="curve" smooth="yes"/>
      <point x="388" y="333"/>
      <point x="373" y="325"/>
      <point x="355" y="325" type="curve" smooth="yes"/>
      <point x="345" y="325"/>
      <point x="335" y="329"/>
      <point x="325" y="339" type="curve" smooth="yes"/>
      <point x="314" y="347"/>
      <point x="300" y="361"/>
      <point x="283" y="381" type="curve" smooth="yes"/>
      <point x="263" y="405"/>
      <point x="245" y="422"/>
      <point x="227" y="433" type="curve" smooth="yes"/>
      <point x="208" y="443"/>
      <point x="187" y="448"/>
      <point x="165" y="448" type="curve" smooth="yes"/>
      <point x="127" y="448"/>
      <point x="96" y="432"/>
      <point x="72" y="400" type="curve" smooth="yes"/>
      <point x="47" y="368"/>
      <point x="35" y="321"/>
      <point x="35" y="261" type="curve"/>
      <point x="111" y="261" type="line"/>
      <point x="111" y="302"/>
      <point x="116" y="331"/>
      <point x="127" y="348" type="curve" smooth="yes"/>
      <point x="137" y="364"/>
      <point x="150" y="372"/>
      <point x="167" y="372" type="curve" smooth="yes"/>
      <point x="176" y="372"/>
      <point x="185" y="368"/>
      <point x="195" y="362" type="curve" smooth="yes"/>
      <point x="204" y="355"/>
      <point x="219" y="339"/>
      <point x="241" y="314" type="curve" smooth="yes"/>
      <point x="261" y="288"/>
      <point x="280" y="271"/>
      <point x="299" y="263" type="curve" smooth="yes"/>
      <point x="317" y="253"/>
      <point x="336" y="249"/>
      <point x="358" y="249" type="curve" smooth="yes"/>
      <point x="400" y="249"/>
      <point x="433" y="265"/>
      <point x="456" y="298" type="curve" smooth="yes"/>
      <point x="478" y="330"/>
      <point x="490" y="376"/>
    </contour>
  </outline>
</glyph>
<glyph name="dieresis" format="2">
  <advance width="518"/>
  <unicode hex="00A8"/>
  <outline>
    <contour>
      <point x="184" y="786" type="line"/>
      <point x="76" y="786" type="line"/>
      <point x="76" y="674" type="line"/>
      <point x="184" y="674" type="line"/>
    </contour>
    <contour>
      <point x="443" y="786" type="line"/>
      <point x="335" y="786" type="line"/>
      <point x="335" y="674" type="line"/>
      <point x="443" y="674" type="line"/>
    </contour>
  </outline>
</glyph>
<glyph name="ordfeminine" format="2">
  <advance width="611"/>
  <unicode hex="00AA"/>
  <outline>
    <contour>
      <point x="101" y="188" type="line"/>
      <point x="502" y="188" type="line"/>
      <point x="502" y="259" type="line"/>
      <point x="101" y="259" type="line"/>
    </contour>
    <contour>
      <point x="381" y="306" type="line"/>
      <point x="462" y="306" type="line"/>
      <point x="462" y="588" type="line" smooth="yes"/>
      <point x="462" y="625"/>
      <point x="448" y="657"/>
      <point x="421" y="685" type="curve" smooth="yes"/>
      <point x="393" y="712"/>
      <point x="357" y="726"/>
      <point x="311" y="726" type="curve" smooth="yes"/>
      <point x="287" y="726"/>
      <point x="266" y="722"/>
      <point x="247" y="715" type="curve" smooth="yes"/>
      <point x="227" y="707"/>
      <point x="211" y="698"/>
      <point x="198" y="687" type="curve" smooth="yes"/>
      <point x="184" y="675"/>
      <point x="173" y="663"/>
      <point x="167" y="649" type="curve" smooth="yes"/>
      <point x="159" y="635"/>
      <point x="156" y="619"/>
      <point x="156" y="601" type="curve"/>
      <point x="246" y="601" type="line"/>
      <point x="246" y="621"/>
      <point x="251" y="635"/>
      <point x="263" y="644" type="curve" smooth="yes"/>
      <point x="274" y="652"/>
      <point x="290" y="656"/>
      <point x="311" y="656" type="curve" smooth="yes"/>
      <point x="327" y="656"/>
      <point x="339" y="653"/>
      <point x="349" y="649" type="curve" smooth="yes"/>
      <point x="357" y="643"/>
      <point x="364" y="637"/>
      <point x="369" y="630" type="curve" smooth="yes"/>
      <point x="373" y="622"/>
      <point x="377" y="614"/>
      <point x="379" y="606" type="curve" smooth="yes"/>
      <point x="380" y="597"/>
      <point x="381" y="590"/>
      <point x="381" y="585" type="curve" smooth="yes"/>
      <point x="381" y="560" type="line"/>
      <point x="370" y="560"/>
      <point x="351" y="559"/>
      <point x="325" y="559" type="curve" smooth="yes"/>
      <point x="297" y="557"/>
      <point x="270" y="551"/>
      <point x="244" y="540" type="curve" smooth="yes"/>
      <point x="217" y="529"/>
      <point x="194" y="513"/>
      <point x="176" y="492" type="curve" smooth="yes"/>
      <point x="156" y="470"/>
      <point x="147" y="442"/>
      <point x="147" y="408" type="curve" smooth="yes"/>
      <point x="147" y="390"/>
      <point x="150" y="375"/>
      <point x="157" y="361" type="curve" smooth="yes"/>
      <point x="163" y="347"/>
      <point x="172" y="335"/>
      <point x="184" y="327" type="curve" smooth="yes"/>
      <point x="195" y="317"/>
      <point x="208" y="309"/>
      <point x="222" y="305" type="curve" smooth="yes"/>
      <point x="236" y="299"/>
      <point x="250" y="297"/>
      <point x="264" y="297" type="curve" smooth="yes"/>
      <point x="282" y="297"/>
      <point x="299" y="299"/>
      <point x="315" y="304" type="curve" smooth="yes"/>
      <point x="329" y="308"/>
      <point x="342" y="314"/>
      <point x="353" y="321" type="curve" smooth="yes"/>
      <point x="362" y="328"/>
      <point x="371" y="337"/>
      <point x="381" y="347" type="curve"/>
    </contour>
    <contour>
      <point x="381" y="460" type="line" smooth="yes"/>
      <point x="381" y="434"/>
      <point x="372" y="413"/>
      <point x="355" y="395" type="curve" smooth="yes"/>
      <point x="337" y="376"/>
      <point x="316" y="367"/>
      <point x="290" y="367" type="curve" smooth="yes"/>
      <point x="274" y="367"/>
      <point x="261" y="370"/>
      <point x="250" y="378" type="curve" smooth="yes"/>
      <point x="238" y="384"/>
      <point x="232" y="397"/>
      <point x="232" y="417" type="curve" smooth="yes"/>
      <point x="232" y="436"/>
      <point x="237" y="451"/>
      <point x="249" y="463" type="curve" smooth="yes"/>
      <point x="259" y="473"/>
      <point x="272" y="481"/>
      <point x="288" y="486" type="curve" smooth="yes"/>
      <point x="304" y="491"/>
      <point x="322" y="494"/>
      <point x="341" y="496" type="curve" smooth="yes"/>
      <point x="359" y="496"/>
      <point x="372" y="497"/>
      <point x="381" y="497" type="curve"/>
    </contour>
  </outline>
</glyph>
<glyph name="registered" format="2">
  <advance width="838"/>
  <unicode hex="00AE"/>
  <outline>
    <contour>
      <point x="689" y="243" type="line"/>
      <point x="642" y="243" type="line" smooth="yes"/>
      <point x="632" y="243"/>
      <point x="625" y="241"/>
      <point x="622" y="238" type="curve" smooth="yes"/>
      <point x="618" y="234"/>
      <point x="614" y="229"/>
      <point x="612" y="225" type="curve" smooth="yes"/>
      <point x="610" y="221"/>
      <point x="609" y="216"/>
      <point x="607" y="211" type="curve" smooth="yes"/>
      <point x="605" y="205"/>
      <point x="601" y="199"/>
      <point x="595" y="193" type="curve" smooth="yes"/>
      <point x="590" y="187"/>
      <point x="584" y="183"/>
      <point x="577" y="180" type="curve" smooth="yes"/>
      <point x="569" y="176"/>
      <point x="564" y="174"/>
      <point x="560" y="174" type="curve" smooth="yes"/>
      <point x="291" y="174" type="line"/>
      <point x="299" y="179"/>
      <point x="316" y="189"/>
      <point x="343" y="205" type="curve" smooth="yes"/>
      <point x="369" y="219"/>
      <point x="410" y="237"/>
      <point x="466" y="257" type="curve" smooth="yes"/>
      <point x="484" y="263"/>
      <point x="504" y="270"/>
      <point x="525" y="279" type="curve" smooth="yes"/>
      <point x="545" y="287"/>
      <point x="564" y="297"/>
      <point x="582" y="309" type="curve" smooth="yes"/>
      <point x="601" y="321"/>
      <point x="618" y="334"/>
      <point x="633" y="350" type="curve" smooth="yes"/>
      <point x="647" y="365"/>
      <point x="659" y="383"/>
      <point x="668" y="405" type="curve" smooth="yes"/>
      <point x="678" y="432"/>
      <point x="681" y="459"/>
      <point x="679" y="485" type="curve" smooth="yes"/>
      <point x="675" y="511"/>
      <point x="667" y="534"/>
      <point x="653" y="555" type="curve" smooth="yes"/>
      <point x="639" y="575"/>
      <point x="622" y="593"/>
      <point x="600" y="608" type="curve" smooth="yes"/>
      <point x="578" y="622"/>
      <point x="554" y="633"/>
      <point x="528" y="640" type="curve" smooth="yes"/>
      <point x="513" y="642"/>
      <point x="495" y="645"/>
      <point x="473" y="648" type="curve" smooth="yes"/>
      <point x="450" y="650"/>
      <point x="425" y="651"/>
      <point x="399" y="651" type="curve" smooth="yes"/>
      <point x="372" y="649"/>
      <point x="345" y="645"/>
      <point x="317" y="638" type="curve" smooth="yes"/>
      <point x="289" y="630"/>
      <point x="262" y="617"/>
      <point x="238" y="600" type="curve" smooth="yes"/>
      <point x="226" y="590"/>
      <point x="214" y="579"/>
      <point x="204" y="567" type="curve" smooth="yes"/>
      <point x="192" y="554"/>
      <point x="183" y="540"/>
      <point x="177" y="525" type="curve" smooth="yes"/>
      <point x="171" y="509"/>
      <point x="169" y="493"/>
      <point x="170" y="476" type="curve" smooth="yes"/>
      <point x="170" y="458"/>
      <point x="175" y="440"/>
      <point x="186" y="423" type="curve" smooth="yes"/>
      <point x="193" y="409"/>
      <point x="204" y="400"/>
      <point x="218" y="394" type="curve" smooth="yes"/>
      <point x="232" y="387"/>
      <point x="246" y="384"/>
      <point x="261" y="386" type="curve" smooth="yes"/>
      <point x="275" y="387"/>
      <point x="289" y="393"/>
      <point x="303" y="404" type="curve" smooth="yes"/>
      <point x="315" y="414"/>
      <point x="325" y="428"/>
      <point x="331" y="447" type="curve" smooth="yes"/>
      <point x="336" y="466"/>
      <point x="336" y="484"/>
      <point x="330" y="501" type="curve" smooth="yes"/>
      <point x="323" y="517"/>
      <point x="318" y="528"/>
      <point x="315" y="534" type="curve"/>
      <point x="319" y="540"/>
      <point x="331" y="547"/>
      <point x="351" y="554" type="curve" smooth="yes"/>
      <point x="369" y="560"/>
      <point x="398" y="562"/>
      <point x="436" y="562" type="curve" smooth="yes"/>
      <point x="454" y="560"/>
      <point x="469" y="554"/>
      <point x="482" y="545" type="curve" smooth="yes"/>
      <point x="494" y="535"/>
      <point x="503" y="523"/>
      <point x="508" y="508" type="curve" smooth="yes"/>
      <point x="514" y="493"/>
      <point x="515" y="477"/>
      <point x="512" y="459" type="curve" smooth="yes"/>
      <point x="508" y="441"/>
      <point x="500" y="423"/>
      <point x="488" y="405" type="curve" smooth="yes"/>
      <point x="479" y="393"/>
      <point x="468" y="382"/>
      <point x="455" y="374" type="curve" smooth="yes"/>
      <point x="441" y="364"/>
      <point x="426" y="355"/>
      <point x="409" y="346" type="curve" smooth="yes"/>
      <point x="391" y="336"/>
      <point x="373" y="326"/>
      <point x="353" y="316" type="curve" smooth="yes"/>
      <point x="333" y="305"/>
      <point x="312" y="292"/>
      <point x="290" y="278" type="curve" smooth="yes"/>
      <point x="249" y="249"/>
      <point x="216" y="220"/>
      <point x="192" y="190" type="curve" smooth="yes"/>
      <point x="166" y="159"/>
      <point x="154" y="128"/>
      <point x="154" y="98" type="curve" smooth="yes"/>
      <point x="154" y="23" type="line"/>
      <point x="671" y="23" type="line"/>
    </contour>
    <contour>
      <point x="153" y="-72" type="line" smooth="yes"/>
      <point x="141" y="-72"/>
      <point x="130" y="-70"/>
      <point x="120" y="-66" type="curve" smooth="yes"/>
      <point x="108" y="-62"/>
      <point x="99" y="-56"/>
      <point x="93" y="-49" type="curve" smooth="yes"/>
      <point x="83" y="-39"/>
      <point x="76" y="-27"/>
      <point x="73" y="-12" type="curve" smooth="yes"/>
      <point x="69" y="4"/>
      <point x="67" y="19"/>
      <point x="67" y="35" type="curve" smooth="yes"/>
      <point x="67" y="630" type="line" smooth="yes"/>
      <point x="67" y="642"/>
      <point x="68" y="656"/>
      <point x="72" y="672" type="curve" smooth="yes"/>
      <point x="74" y="686"/>
      <point x="79" y="698"/>
      <point x="85" y="706" type="curve" smooth="yes"/>
      <point x="93" y="716"/>
      <point x="104" y="724"/>
      <point x="117" y="729" type="curve" smooth="yes"/>
      <point x="129" y="733"/>
      <point x="142" y="736"/>
      <point x="156" y="736" type="curve" smooth="yes"/>
      <point x="679" y="736" type="line" smooth="yes"/>
      <point x="693" y="736"/>
      <point x="706" y="733"/>
      <point x="719" y="729" type="curve" smooth="yes"/>
      <point x="731" y="724"/>
      <point x="741" y="716"/>
      <point x="751" y="706" type="curve" smooth="yes"/>
      <point x="756" y="698"/>
      <point x="761" y="686"/>
      <point x="765" y="672" type="curve" smooth="yes"/>
      <point x="768" y="656"/>
      <point x="770" y="642"/>
      <point x="770" y="630" type="curve" smooth="yes"/>
      <point x="770" y="36" type="line" smooth="yes"/>
      <point x="770" y="20"/>
      <point x="768" y="4"/>
      <point x="764" y="-12" type="curve" smooth="yes"/>
      <point x="759" y="-27"/>
      <point x="752" y="-39"/>
      <point x="743" y="-49" type="curve" smooth="yes"/>
      <point x="736" y="-56"/>
      <point x="727" y="-62"/>
      <point x="717" y="-66" type="curve" smooth="yes"/>
      <point x="705" y="-70"/>
      <point x="693" y="-72"/>
      <point x="681" y="-72" type="curve" smooth="yes"/>
    </contour>
    <contour>
      <point x="166" y="779" type="line" smooth="yes"/>
      <point x="160" y="779"/>
      <point x="153" y="778"/>
      <point x="144" y="778" type="curve" smooth="yes"/>
      <point x="134" y="777"/>
      <point x="123" y="775"/>
      <point x="111" y="773" type="curve" smooth="yes"/>
      <point x="99" y="769"/>
      <point x="88" y="765"/>
      <point x="78" y="759" type="curve" smooth="yes"/>
      <point x="66" y="753"/>
      <point x="57" y="745"/>
      <point x="50" y="735" type="curve" smooth="yes"/>
      <point x="37" y="718"/>
      <point x="29" y="700"/>
      <point x="26" y="681" type="curve" smooth="yes"/>
      <point x="22" y="661"/>
      <point x="21" y="646"/>
      <point x="21" y="634" type="curve" smooth="yes"/>
      <point x="21" y="46" type="line" smooth="yes"/>
      <point x="21" y="40"/>
      <point x="21" y="31"/>
      <point x="22" y="21" type="curve" smooth="yes"/>
      <point x="22" y="9"/>
      <point x="24" y="-2"/>
      <point x="27" y="-14" type="curve" smooth="yes"/>
      <point x="29" y="-26"/>
      <point x="32" y="-39"/>
      <point x="38" y="-51" type="curve" smooth="yes"/>
      <point x="43" y="-62"/>
      <point x="50" y="-72"/>
      <point x="60" y="-80" type="curve" smooth="yes"/>
      <point x="74" y="-93"/>
      <point x="90" y="-102"/>
      <point x="108" y="-108" type="curve" smooth="yes"/>
      <point x="126" y="-112"/>
      <point x="141" y="-115"/>
      <point x="153" y="-115" type="curve" smooth="yes"/>
      <point x="681" y="-115" type="line" smooth="yes"/>
      <point x="693" y="-115"/>
      <point x="709" y="-112"/>
      <point x="727" y="-108" type="curve" smooth="yes"/>
      <point x="744" y="-102"/>
      <point x="760" y="-93"/>
      <point x="775" y="-80" type="curve" smooth="yes"/>
      <point x="784" y="-72"/>
      <point x="791" y="-62"/>
      <point x="797" y="-51" type="curve" smooth="yes"/>
      <point x="802" y="-39"/>
      <point x="806" y="-26"/>
      <point x="808" y="-14" type="curve" smooth="yes"/>
      <point x="810" y="-2"/>
      <point x="812" y="9"/>
      <point x="814" y="21" type="curve" smooth="yes"/>
      <point x="814" y="31"/>
      <point x="815" y="40"/>
      <point x="815" y="46" type="curve" smooth="yes"/>
      <point x="815" y="634" type="line" smooth="yes"/>
      <point x="815" y="646"/>
      <point x="813" y="661"/>
      <point x="810" y="681" type="curve" smooth="yes"/>
      <point x="806" y="700"/>
      <point x="798" y="718"/>
      <point x="786" y="735" type="curve" smooth="yes"/>
      <point x="778" y="745"/>
      <point x="769" y="753"/>
      <point x="759" y="759" type="curve" smooth="yes"/>
      <point x="747" y="765"/>
      <point x="736" y="769"/>
      <point x="724" y="773" type="curve" smooth="yes"/>
      <point x="712" y="775"/>
      <point x="702" y="777"/>
      <point x="693" y="778" type="curve" smooth="yes"/>
      <point x="683" y="778"/>
      <point x="675" y="779"/>
      <point x="669" y="779" type="curve" smooth="yes"/>
    </contour>
  </outline>
</glyph>
<glyph name="paragraph" format="2">
  <advance width="838"/>
  <unicode hex="00B6"/>
  <outline>
    <contour>
      <point x="357" y="716" type="line" smooth="yes"/>
      <point x="311" y="716"/>
      <point x="271" y="697"/>
      <point x="237" y="660" type="curve" smooth="yes"/>
      <point x="202" y="622"/>
      <point x="185" y="577"/>
      <point x="185" y="523" type="curve" smooth="yes"/>
      <point x="185" y="467"/>
      <point x="201" y="421"/>
      <point x="233" y="383" type="curve" smooth="yes"/>
      <point x="265" y="345"/>
      <point x="308" y="326"/>
      <point x="362" y="326" type="curve"/>
      <point x="362" y="-151" type="line"/>
      <point x="416" y="-151" type="line"/>
      <point x="416" y="665" type="line"/>
      <point x="489" y="665" type="line"/>
      <point x="489" y="-151" type="line"/>
      <point x="544" y="-151" type="line"/>
      <point x="544" y="716" type="line"/>
    </contour>
  </outline>
</glyph>
<glyph name="threequarters" format="2">
  <advance width="838"/>
  <unicode hex="00BE"/>
  <outline>
    <contour>
      <point x="132" y="-70" type="line"/>
      <point x="735" y="712" type="line"/>
      <point x="678" y="756" type="line"/>
      <point x="75" y="-26" type="line"/>
    </contour>
    <contour>
      <point x="602" y="37" type="line"/>
      <point x="602" y="-69" type="line"/>
      <point x="675" y="-69" type="line"/>
      <point x="675" y="37" type="line"/>
      <point x="731" y="37" type="line"/>
      <point x="731" y="106" type="line"/>
      <point x="675" y="106" type="line"/>
      <point x="675" y="356" type="line"/>
      <point x="606" y="356" type="line"/>
      <point x="464" y="91" type="line"/>
      <point x="464" y="37" type="line"/>
    </contour>
    <contour>
      <point x="602" y="220" type="line"/>
      <point x="602" y="106" type="line"/>
      <point x="543" y="106" type="line"/>
    </contour>
    <contour>
      <point x="264" y="550" type="curve"/>
      <point x="271" y="554"/>
      <point x="280" y="563"/>
      <point x="292" y="577" type="curve" smooth="yes"/>
      <point x="302" y="590"/>
      <point x="308" y="610"/>
      <point x="308" y="638" type="curve" smooth="yes"/>
      <point x="308" y="656"/>
      <point x="304" y="672"/>
      <point x="298" y="687" type="curve" smooth="yes"/>
      <point x="290" y="701"/>
      <point x="281" y="713"/>
      <point x="271" y="723" type="curve" smooth="yes"/>
      <point x="260" y="733"/>
      <point x="248" y="741"/>
      <point x="234" y="747" type="curve" smooth="yes"/>
      <point x="219" y="752"/>
      <point x="204" y="755"/>
      <point x="190" y="755" type="curve" smooth="yes"/>
      <point x="170" y="755"/>
      <point x="152" y="751"/>
      <point x="138" y="745" type="curve" smooth="yes"/>
      <point x="123" y="738"/>
      <point x="111" y="729"/>
      <point x="103" y="718" type="curve" smooth="yes"/>
      <point x="94" y="708"/>
      <point x="87" y="698"/>
      <point x="83" y="686" type="curve" smooth="yes"/>
      <point x="78" y="673"/>
      <point x="76" y="659"/>
      <point x="76" y="644" type="curve"/>
      <point x="148" y="644" type="line"/>
      <point x="150" y="660"/>
      <point x="155" y="672"/>
      <point x="163" y="680" type="curve" smooth="yes"/>
      <point x="169" y="687"/>
      <point x="179" y="691"/>
      <point x="193" y="691" type="curve" smooth="yes"/>
      <point x="203" y="691"/>
      <point x="213" y="686"/>
      <point x="221" y="677" type="curve" smooth="yes"/>
      <point x="228" y="667"/>
      <point x="232" y="654"/>
      <point x="232" y="638" type="curve" smooth="yes"/>
      <point x="232" y="617"/>
      <point x="226" y="603"/>
      <point x="215" y="595" type="curve" smooth="yes"/>
      <point x="203" y="586"/>
      <point x="184" y="582"/>
      <point x="158" y="582" type="curve"/>
      <point x="158" y="518" type="line"/>
      <point x="183" y="518"/>
      <point x="202" y="514"/>
      <point x="216" y="506" type="curve" smooth="yes"/>
      <point x="229" y="498"/>
      <point x="236" y="480"/>
      <point x="236" y="453" type="curve" smooth="yes"/>
      <point x="236" y="433"/>
      <point x="232" y="417"/>
      <point x="224" y="406" type="curve" smooth="yes"/>
      <point x="216" y="394"/>
      <point x="204" y="388"/>
      <point x="189" y="388" type="curve" smooth="yes"/>
      <point x="175" y="388"/>
      <point x="165" y="392"/>
      <point x="159" y="401" type="curve" smooth="yes"/>
      <point x="152" y="409"/>
      <point x="148" y="421"/>
      <point x="148" y="436" type="curve"/>
      <point x="67" y="436" type="line"/>
      <point x="71" y="402"/>
      <point x="82" y="375"/>
      <point x="102" y="355" type="curve" smooth="yes"/>
      <point x="121" y="333"/>
      <point x="151" y="323"/>
      <point x="191" y="323" type="curve" smooth="yes"/>
      <point x="231" y="323"/>
      <point x="262" y="336"/>
      <point x="284" y="362" type="curve" smooth="yes"/>
      <point x="304" y="387"/>
      <point x="315" y="417"/>
      <point x="315" y="453" type="curve" smooth="yes"/>
      <point x="315" y="483"/>
      <point x="308" y="506"/>
      <point x="295" y="522" type="curve" smooth="yes"/>
      <point x="281" y="537"/>
      <point x="270" y="546"/>
    </contour>
  </outline>
</glyph>
<glyph name="divide" format="2">
  <advance width="590"/>
  <unicode hex="00F7"/>
  <outline>
    <contour>
      <point x="364" y="572" type="curve" smooth="yes"/>
      <point x="364" y="590"/>
      <point x="357" y="607"/>
      <point x="344" y="621" type="curve" smooth="yes"/>
      <point x="330" y="634"/>
      <point x="313" y="641"/>
      <point x="294" y="641" type="curve" smooth="yes"/>
      <point x="274" y="641"/>
      <point x="258" y="634"/>
      <point x="245" y="621" type="curve" smooth="yes"/>
      <point x="231" y="607"/>
      <point x="224" y="590"/>
      <point x="224" y="572" type="curve" smooth="yes"/>
      <point x="224" y="553"/>
      <point x="231" y="537"/>
      <point x="245" y="524" type="curve" smooth="yes"/>
      <point x="258" y="510"/>
      <point x="274" y="503"/>
      <point x="294" y="503" type="curve" smooth="yes"/>
      <point x="313" y="503"/>
      <point x="330" y="510"/>
      <point x="344" y="524" type="curve" smooth="yes"/>
      <point x="357" y="537"/>
      <point x="364" y="553"/>
    </contour>
    <contour>
      <point x="556" y="382" type="line"/>
      <point x="32" y="382" type="line"/>
      <point x="32" y="302" type="line"/>
      <point x="556" y="302" type="line"/>
    </contour>
    <contour>
      <point x="364" y="111" type="curve" smooth="yes"/>
      <point x="364" y="129"/>
      <point x="357" y="146"/>
      <point x="344" y="160" type="curve" smooth="yes"/>
      <point x="330" y="173"/>
      <point x="313" y="180"/>
      <point x="294" y="180" type="curve" smooth="yes"/>
      <point x="274" y="180"/>
      <point x="258" y="173"/>
      <point x="245" y="160" type="curve" smooth="yes"/>
      <point x="231" y="146"/>
      <point x="224" y="129"/>
      <point x="224" y="111" type="curve" smooth="yes"/>
      <point x="224" y="92"/>
      <point x="231" y="76"/>
      <point x="245" y="63" type="curve" smooth="yes"/>
      <point x="258" y="49"/>
      <point x="274" y="42"/>
      <point x="294" y="42" type="curve" smooth="yes"/>
      <point x="313" y="42"/>
      <point x="330" y="49"/>
      <point x="344" y="63" type="curve" smooth="yes"/>
      <point x="357" y="76"/>
      <point x="364" y="92"/>
    </contour>
  </outline>
</glyph>
<glyph name="oslash" format="2">
  <advance width="533"/>
  <unicode hex="00F8"/>
  <outline>
    <contour>
      <point x="392" y="252" type="curve" smooth="yes"/>
      <point x="392" y="226"/>
      <point x="389" y="200"/>
      <point x="383" y="176" type="curve" smooth="yes"/>
      <point x="376" y="151"/>
      <point x="367" y="130"/>
      <point x="356" y="113" type="curve" smooth="yes"/>
      <point x="344" y="95"/>
      <point x="329" y="82"/>
      <point x="313" y="74" type="curve" smooth="yes"/>
      <point x="296" y="64"/>
      <point x="279" y="60"/>
      <point x="262" y="60" type="curve" smooth="yes"/>
      <point x="244" y="60"/>
      <point x="227" y="64"/>
      <point x="211" y="74" type="curve" smooth="yes"/>
      <point x="207" y="76" type="line"/>
      <point x="380" y="336" type="line"/>
      <point x="380" y="333"/>
      <point x="381" y="331"/>
      <point x="383" y="329" type="curve" smooth="yes"/>
      <point x="389" y="303"/>
      <point x="392" y="278"/>
    </contour>
    <contour>
      <point x="347" y="403" type="curve"/>
      <point x="161" y="125" type="line"/>
      <point x="153" y="139"/>
      <point x="146" y="156"/>
      <point x="142" y="176" type="curve" smooth="yes"/>
      <point x="135" y="200"/>
      <point x="132" y="226"/>
      <point x="132" y="252" type="curve" smooth="yes"/>
      <point x="132" y="278"/>
      <point x="135" y="303"/>
      <point x="142" y="329" type="curve" smooth="yes"/>
      <point x="148" y="353"/>
      <point x="156" y="374"/>
      <point x="168" y="392" type="curve" smooth="yes"/>
      <point x="180" y="409"/>
      <point x="194" y="422"/>
      <point x="211" y="432" type="curve" smooth="yes"/>
      <point x="227" y="440"/>
      <point x="244" y="445"/>
      <point x="262" y="445" type="curve" smooth="yes"/>
      <point x="279" y="445"/>
      <point x="296" y="440"/>
      <point x="313" y="432" type="curve" smooth="yes"/>
      <point x="325" y="424"/>
      <point x="337" y="415"/>
    </contour>
    <contour>
      <point x="479" y="252" type="curve" smooth="yes"/>
      <point x="479" y="288"/>
      <point x="474" y="322"/>
      <point x="464" y="356" type="curve" smooth="yes"/>
      <point x="456" y="378"/>
      <point x="447" y="399"/>
      <point x="435" y="418" type="curve"/>
      <point x="478" y="483" type="line"/>
      <point x="426" y="521" type="line"/>
      <point x="391" y="469" type="line"/>
      <point x="378" y="479"/>
      <point x="364" y="488"/>
      <point x="349" y="496" type="curve" smooth="yes"/>
      <point x="321" y="509"/>
      <point x="292" y="516"/>
      <point x="262" y="516" type="curve" smooth="yes"/>
      <point x="232" y="516"/>
      <point x="203" y="509"/>
      <point x="176" y="496" type="curve" smooth="yes"/>
      <point x="148" y="482"/>
      <point x="124" y="464"/>
      <point x="105" y="440" type="curve" smooth="yes"/>
      <point x="85" y="416"/>
      <point x="71" y="388"/>
      <point x="61" y="356" type="curve" smooth="yes"/>
      <point x="50" y="322"/>
      <point x="45" y="288"/>
      <point x="45" y="252" type="curve" smooth="yes"/>
      <point x="45" y="216"/>
      <point x="50" y="181"/>
      <point x="61" y="149" type="curve" smooth="yes"/>
      <point x="71" y="116"/>
      <point x="85" y="88"/>
      <point x="105" y="64" type="curve" smooth="yes"/>
      <point x="107" y="60"/>
      <point x="110" y="57"/>
      <point x="114" y="54" type="curve"/>
      <point x="71" y="-10" type="line"/>
      <point x="126" y="-46" type="line"/>
      <point x="166" y="13" type="line"/>
      <point x="168" y="11"/>
      <point x="172" y="10"/>
      <point x="176" y="9" type="curve" smooth="yes"/>
      <point x="203" y="-4"/>
      <point x="232" y="-11"/>
      <point x="262" y="-11" type="curve" smooth="yes"/>
      <point x="292" y="-11"/>
      <point x="321" y="-4"/>
      <point x="349" y="9" type="curve" smooth="yes"/>
      <point x="376" y="21"/>
      <point x="399" y="40"/>
      <point x="419" y="64" type="curve" smooth="yes"/>
      <point x="438" y="88"/>
      <point x="453" y="116"/>
      <point x="464" y="149" type="curve" smooth="yes"/>
      <point x="474" y="181"/>
      <point x="479" y="216"/>
    </contour>
  </outline>
</glyph>
<glyph name="thorn" format="2">
  <advance width="524"/>
  <unicode hex="00FE"/>
  <outline>
    <contour>
      <point x="83" y="-160" type="line"/>
      <point x="163" y="-160" type="line"/>
      <point x="163" y="42" type="line"/>
      <point x="169" y="32"/>
      <point x="182" y="22"/>
      <point x="203" y="10" type="curve" smooth="yes"/>
      <point x="223" y="-2"/>
      <point x="248" y="-8"/>
      <point x="277" y="-8" type="curve" smooth="yes"/>
      <point x="337" y="-8"/>
      <point x="386" y="13"/>
      <point x="426" y="57" type="curve" smooth="yes"/>
      <point x="464" y="100"/>
      <point x="484" y="165"/>
      <point x="484" y="251" type="curve" smooth="yes"/>
      <point x="484" y="283"/>
      <point x="480" y="315"/>
      <point x="474" y="347" type="curve" smooth="yes"/>
      <point x="467" y="378"/>
      <point x="456" y="406"/>
      <point x="441" y="432" type="curve" smooth="yes"/>
      <point x="425" y="456"/>
      <point x="405" y="477"/>
      <point x="381" y="493" type="curve" smooth="yes"/>
      <point x="356" y="508"/>
      <point x="326" y="516"/>
      <point x="292" y="516" type="curve" smooth="yes"/>
      <point x="270" y="516"/>
      <point x="250" y="512"/>
      <point x="234" y="505" type="curve" smooth="yes"/>
      <point x="217" y="497"/>
      <point x="203" y="488"/>
      <point x="192" y="477" type="curve" smooth="yes"/>
      <point x="181" y="466"/>
      <point x="175" y="459"/>
      <point x="175" y="457" type="curve" smooth="yes"/>
      <point x="173" y="454"/>
      <point x="169" y="448"/>
      <point x="163" y="439" type="curve"/>
      <point x="163" y="713" type="line"/>
      <point x="83" y="713" type="line"/>
    </contour>
    <contour>
      <point x="165" y="234" type="curve" smooth="yes"/>
      <point x="165" y="262"/>
      <point x="167" y="288"/>
      <point x="173" y="314" type="curve" smooth="yes"/>
      <point x="178" y="339"/>
      <point x="186" y="361"/>
      <point x="197" y="381" type="curve" smooth="yes"/>
      <point x="208" y="399"/>
      <point x="221" y="414"/>
      <point x="236" y="426" type="curve" smooth="yes"/>
      <point x="250" y="436"/>
      <point x="266" y="442"/>
      <point x="284" y="442" type="curve" smooth="yes"/>
      <point x="305" y="442"/>
      <point x="323" y="436"/>
      <point x="337" y="425" type="curve" smooth="yes"/>
      <point x="351" y="413"/>
      <point x="362" y="399"/>
      <point x="371" y="381" type="curve" smooth="yes"/>
      <point x="379" y="361"/>
      <point x="386" y="340"/>
      <point x="390" y="317" type="curve" smooth="yes"/>
      <point x="393" y="293"/>
      <point x="395" y="270"/>
      <point x="395" y="246" type="curve" smooth="yes"/>
      <point x="395" y="192"/>
      <point x="384" y="148"/>
      <point x="364" y="114" type="curve" smooth="yes"/>
      <point x="343" y="79"/>
      <point x="314" y="62"/>
      <point x="277" y="62" type="curve" smooth="yes"/>
      <point x="257" y="62"/>
      <point x="241" y="67"/>
      <point x="227" y="78" type="curve" smooth="yes"/>
      <point x="212" y="88"/>
      <point x="200" y="101"/>
      <point x="191" y="118" type="curve" smooth="yes"/>
      <point x="181" y="134"/>
      <point x="175" y="153"/>
      <point x="171" y="174" type="curve" smooth="yes"/>
      <point x="167" y="194"/>
      <point x="165" y="214"/>
    </contour>
  </outline>
</glyph>
<glyph name="dotlessi" format="2">
  <advance width="223"/>
  <unicode hex="0131"/>
  <outline>
    <contour>
      <point x="64" y="0" type="line"/>
      <point x="148" y="0" type="line"/>
      <point x="148" y="504" type="line"/>
      <point x="64" y="504" type="line"/>
    </contour>
  </outline>
</glyph>
<glyph name="Ldot" format="2">
  <advance width="512"/>
  <unicode hex="013F"/>
  <outline>
    <contour>
      <point x="92" y="0" type="line"/>
      <point x="462" y="0" type="line"/>
      <point x="462" y="79" type="line"/>
      <point x="176" y="79" type="line"/>
      <point x="176" y="713" type="line"/>
      <point x="92" y="713" type="line"/>
    </contour>
    <contour>
      <point x="294" y="422" type="line"/>
      <point x="294" y="310" type="line"/>
      <point x="396" y="310" type="line"/>
      <point x="396" y="422" type="line"/>
    </contour>
  </outline>
</glyph>
<glyph name="ldot" format="2">
  <advance width="366"/>
  <unicode hex="0140"/>
  <outline>
    <contour>
      <point x="83" y="0" type="line"/>
      <point x="164" y="0" type="line"/>
      <point x="164" y="713" type="line"/>
      <point x="83" y="713" type="line"/>
    </contour>
    <contour>
      <point x="218" y="448" type="line"/>
      <point x="218" y="336" type="line"/>
      <point x="320" y="336" type="line"/>
      <point x="320" y="448" type="line"/>
    </contour>
  </outline>
</glyph>
<glyph name="eng" format="2">
  <advance width="505"/>
  <unicode hex="014B"/>
  <outline>
    <contour>
      <point x="232" y="-160" type="line"/>
      <point x="260" y="-160"/>
      <point x="286" y="-158"/>
      <point x="310" y="-154" type="curve" smooth="yes"/>
      <point x="332" y="-149"/>
      <point x="352" y="-139"/>
      <point x="369" y="-124" type="curve" smooth="yes"/>
      <point x="387" y="-110"/>
      <point x="401" y="-90"/>
      <point x="412" y="-65" type="curve" smooth="yes"/>
      <point x="422" y="-39"/>
      <point x="427" y="-5"/>
      <point x="427" y="35" type="curve" smooth="yes"/>
      <point x="427" y="358" type="line" smooth="yes"/>
      <point x="425" y="409"/>
      <point x="411" y="448"/>
      <point x="386" y="476" type="curve" smooth="yes"/>
      <point x="360" y="502"/>
      <point x="326" y="516"/>
      <point x="286" y="516" type="curve" smooth="yes"/>
      <point x="258" y="516"/>
      <point x="235" y="510"/>
      <point x="217" y="500" type="curve" smooth="yes"/>
      <point x="198" y="489"/>
      <point x="182" y="477"/>
      <point x="169" y="464" type="curve" smooth="yes"/>
      <point x="157" y="449"/>
      <point x="150" y="439"/>
      <point x="148" y="435" type="curve" smooth="yes"/>
      <point x="145" y="429"/>
      <point x="142" y="423"/>
      <point x="139" y="416" type="curve"/>
      <point x="139" y="504" type="line"/>
      <point x="64" y="504" type="line"/>
      <point x="64" y="0" type="line"/>
      <point x="139" y="0" type="line"/>
      <point x="139" y="210" type="line" smooth="yes"/>
      <point x="139" y="222"/>
      <point x="139" y="233"/>
      <point x="141" y="245" type="curve" smooth="yes"/>
      <point x="142" y="256"/>
      <point x="144" y="268"/>
      <point x="146" y="282" type="curve" smooth="yes"/>
      <point x="156" y="328"/>
      <point x="173" y="365"/>
      <point x="196" y="394" type="curve" smooth="yes"/>
      <point x="218" y="422"/>
      <point x="243" y="436"/>
      <point x="270" y="434" type="curve" smooth="yes"/>
      <point x="291" y="432"/>
      <point x="307" y="426"/>
      <point x="318" y="418" type="curve" smooth="yes"/>
      <point x="328" y="408"/>
      <point x="336" y="396"/>
      <point x="341" y="382" type="curve" smooth="yes"/>
      <point x="346" y="367"/>
      <point x="349" y="351"/>
      <point x="350" y="333" type="curve" smooth="yes"/>
      <point x="350" y="315"/>
      <point x="351" y="297"/>
      <point x="351" y="280" type="curve" smooth="yes"/>
      <point x="351" y="12" type="line" smooth="yes"/>
      <point x="351" y="-14"/>
      <point x="347" y="-33"/>
      <point x="339" y="-47" type="curve" smooth="yes"/>
      <point x="330" y="-59"/>
      <point x="320" y="-68"/>
      <point x="310" y="-74" type="curve" smooth="yes"/>
      <point x="298" y="-78"/>
      <point x="285" y="-81"/>
      <point x="273" y="-82" type="curve" smooth="yes"/>
      <point x="259" y="-82"/>
      <point x="246" y="-82"/>
      <point x="232" y="-82" type="curve"/>
    </contour>
  </outline>
</glyph>
<glyph name="uni02D0" format="2">
  <advance width="230"/>
  <unicode hex="02D0"/>
  <outline>
    <contour>
      <point x="194" y="117" type="line"/>
      <point x="115" y="257" type="line"/>
      <point x="38" y="117" type="line"/>
    </contour>
    <contour>
      <point x="38" y="587" type="line"/>
      <point x="115" y="446" type="line"/>
      <point x="194" y="587" type="line"/>
    </contour>
  </outline>
</glyph>
<glyph name="breve" format="2">
  <advance width="838"/>
  <unicode hex="02D8"/>
  <outline>
    <contour>
      <point x="424" y="707" type="curve" smooth="yes"/>
      <point x="402" y="707"/>
      <point x="379" y="713"/>
      <point x="355" y="726" type="curve" smooth="yes"/>
      <point x="331" y="738"/>
      <point x="305" y="758"/>
      <point x="279" y="788" type="curve"/>
      <point x="279" y="711" type="line"/>
      <point x="295" y="690"/>
      <point x="316" y="673"/>
      <point x="344" y="659" type="curve" smooth="yes"/>
      <point x="370" y="644"/>
      <point x="397" y="637"/>
      <point x="424" y="637" type="curve" smooth="yes"/>
      <point x="450" y="637"/>
      <point x="477" y="644"/>
      <point x="505" y="659" type="curve" smooth="yes"/>
      <point x="531" y="673"/>
      <point x="553" y="690"/>
      <point x="569" y="711" type="curve"/>
      <point x="569" y="788" type="line"/>
      <point x="542" y="758"/>
      <point x="517" y="738"/>
      <point x="493" y="726" type="curve" smooth="yes"/>
      <point x="469" y="713"/>
      <point x="446" y="707"/>
    </contour>
  </outline>
</glyph>
<glyph name="tilde" format="2">
  <advance width="940"/>
  <unicode hex="02DC"/>
  <outline>
    <contour>
      <point x="177" y="290" type="line"/>
      <point x="238" y="290" type="line"/>
      <point x="238" y="339" type="line" smooth="yes"/>
      <point x="238" y="362"/>
      <point x="245" y="379"/>
      <point x="261" y="391" type="curve" smooth="yes"/>
      <point x="275" y="401"/>
      <point x="290" y="407"/>
      <point x="306" y="407" type="curve" smooth="yes"/>
      <point x="330" y="407"/>
      <point x="353" y="399"/>
      <point x="373" y="383" type="curve" smooth="yes"/>
      <point x="393" y="367"/>
      <point x="413" y="349"/>
      <point x="435" y="331" type="curve" smooth="yes"/>
      <point x="455" y="311"/>
      <point x="478" y="294"/>
      <point x="504" y="279" type="curve" smooth="yes"/>
      <point x="528" y="263"/>
      <point x="558" y="255"/>
      <point x="594" y="255" type="curve" smooth="yes"/>
      <point x="618" y="255"/>
      <point x="639" y="260"/>
      <point x="656" y="270" type="curve" smooth="yes"/>
      <point x="672" y="279"/>
      <point x="686" y="290"/>
      <point x="696" y="304" type="curve" smooth="yes"/>
      <point x="706" y="317"/>
      <point x="713" y="331"/>
      <point x="718" y="345" type="curve" smooth="yes"/>
      <point x="722" y="358"/>
      <point x="724" y="369"/>
      <point x="724" y="377" type="curve" smooth="yes"/>
      <point x="724" y="438" type="line"/>
      <point x="663" y="438" type="line"/>
      <point x="663" y="394" type="line" smooth="yes"/>
      <point x="663" y="377"/>
      <point x="657" y="360"/>
      <point x="646" y="343" type="curve" smooth="yes"/>
      <point x="634" y="325"/>
      <point x="617" y="317"/>
      <point x="597" y="317" type="curve" smooth="yes"/>
      <point x="571" y="317"/>
      <point x="548" y="325"/>
      <point x="528" y="341" type="curve" smooth="yes"/>
      <point x="506" y="356"/>
      <point x="485" y="373"/>
      <point x="464" y="393" type="curve" smooth="yes"/>
      <point x="442" y="412"/>
      <point x="418" y="430"/>
      <point x="392" y="446" type="curve" smooth="yes"/>
      <point x="366" y="462"/>
      <point x="335" y="470"/>
      <point x="301" y="470" type="curve" smooth="yes"/>
      <point x="281" y="470"/>
      <point x="264" y="466"/>
      <point x="249" y="459" type="curve" smooth="yes"/>
      <point x="233" y="451"/>
      <point x="220" y="442"/>
      <point x="210" y="431" type="curve" smooth="yes"/>
      <point x="199" y="419"/>
      <point x="191" y="406"/>
      <point x="186" y="392" type="curve" smooth="yes"/>
      <point x="180" y="376"/>
      <point x="177" y="361"/>
      <point x="177" y="347" type="curve" smooth="yes"/>
    </contour>
  </outline>
</glyph>
<glyph name="Beta" format="2">
  <advance width="537"/>
  <unicode hex="0392"/>
  <outline>
    <contour>
      <point x="74" y="0" type="line"/>
      <point x="271" y="0" type="line" smooth="yes"/>
      <point x="283" y="0"/>
      <point x="297" y="0"/>
      <point x="313" y="2" type="curve" smooth="yes"/>
      <point x="328" y="3"/>
      <point x="342" y="5"/>
      <point x="356" y="9" type="curve" smooth="yes"/>
      <point x="396" y="21"/>
      <point x="429" y="42"/>
      <point x="456" y="74" type="curve" smooth="yes"/>
      <point x="482" y="104"/>
      <point x="496" y="147"/>
      <point x="496" y="202" type="curve" smooth="yes"/>
      <point x="496" y="236"/>
      <point x="490" y="265"/>
      <point x="480" y="287" type="curve" smooth="yes"/>
      <point x="468" y="308"/>
      <point x="455" y="325"/>
      <point x="440" y="339" type="curve" smooth="yes"/>
      <point x="424" y="352"/>
      <point x="410" y="361"/>
      <point x="398" y="367" type="curve" smooth="yes"/>
      <point x="385" y="371"/>
      <point x="377" y="374"/>
      <point x="373" y="376" type="curve"/>
      <point x="380" y="380"/>
      <point x="390" y="386"/>
      <point x="402" y="395" type="curve" smooth="yes"/>
      <point x="414" y="403"/>
      <point x="426" y="417"/>
      <point x="440" y="436" type="curve" smooth="yes"/>
      <point x="448" y="448"/>
      <point x="455" y="463"/>
      <point x="461" y="479" type="curve" smooth="yes"/>
      <point x="467" y="494"/>
      <point x="470" y="512"/>
      <point x="470" y="534" type="curve" smooth="yes"/>
      <point x="468" y="566"/>
      <point x="462" y="594"/>
      <point x="451" y="617" type="curve" smooth="yes"/>
      <point x="439" y="639"/>
      <point x="424" y="658"/>
      <point x="405" y="672" type="curve" smooth="yes"/>
      <point x="387" y="686"/>
      <point x="366" y="696"/>
      <point x="343" y="703" type="curve" smooth="yes"/>
      <point x="319" y="709"/>
      <point x="295" y="713"/>
      <point x="271" y="713" type="curve" smooth="yes"/>
      <point x="74" y="713" type="line"/>
    </contour>
    <contour>
      <point x="158" y="636" type="line"/>
      <point x="247" y="636" type="line" smooth="yes"/>
      <point x="253" y="636"/>
      <point x="261" y="635"/>
      <point x="271" y="635" type="curve" smooth="yes"/>
      <point x="279" y="634"/>
      <point x="287" y="633"/>
      <point x="295" y="633" type="curve" smooth="yes"/>
      <point x="319" y="628"/>
      <point x="341" y="618"/>
      <point x="359" y="603" type="curve" smooth="yes"/>
      <point x="377" y="587"/>
      <point x="386" y="563"/>
      <point x="386" y="529" type="curve" smooth="yes"/>
      <point x="386" y="506"/>
      <point x="382" y="488"/>
      <point x="376" y="474" type="curve" smooth="yes"/>
      <point x="368" y="460"/>
      <point x="360" y="448"/>
      <point x="350" y="439" type="curve" smooth="yes"/>
      <point x="339" y="429"/>
      <point x="328" y="423"/>
      <point x="316" y="419" type="curve" smooth="yes"/>
      <point x="303" y="415"/>
      <point x="292" y="412"/>
      <point x="282" y="412" type="curve" smooth="yes"/>
      <point x="274" y="410"/>
      <point x="266" y="410"/>
      <point x="258" y="410" type="curve" smooth="yes"/>
      <point x="249" y="410"/>
      <point x="242" y="410"/>
      <point x="238" y="410" type="curve" smooth="yes"/>
      <point x="158" y="410" type="line"/>
    </contour>
    <contour>
      <point x="158" y="334" type="line"/>
      <point x="266" y="334" type="line" smooth="yes"/>
      <point x="274" y="334"/>
      <point x="284" y="333"/>
      <point x="296" y="332" type="curve" smooth="yes"/>
      <point x="307" y="330"/>
      <point x="317" y="327"/>
      <point x="326" y="325" type="curve" smooth="yes"/>
      <point x="354" y="315"/>
      <point x="376" y="299"/>
      <point x="390" y="279" type="curve" smooth="yes"/>
      <point x="403" y="257"/>
      <point x="410" y="232"/>
      <point x="410" y="204" type="curve" smooth="yes"/>
      <point x="408" y="178"/>
      <point x="404" y="158"/>
      <point x="397" y="144" type="curve" smooth="yes"/>
      <point x="389" y="129"/>
      <point x="381" y="117"/>
      <point x="371" y="108" type="curve" smooth="yes"/>
      <point x="359" y="98"/>
      <point x="348" y="92"/>
      <point x="336" y="88" type="curve" smooth="yes"/>
      <point x="323" y="83"/>
      <point x="312" y="80"/>
      <point x="302" y="79" type="curve" smooth="yes"/>
      <point x="293" y="77"/>
      <point x="285" y="77"/>
      <point x="277" y="77" type="curve" smooth="yes"/>
      <point x="269" y="77"/>
      <point x="263" y="77"/>
      <point x="259" y="77" type="curve" smooth="yes"/>
      <point x="158" y="77" type="line"/>
    </contour>
  </outline>
</glyph>
<glyph name="Gamma" format="2">
  <advance width="449"/>
  <unicode hex="0393"/>
  <outline>
    <contour>
      <point x="77" y="0" type="line"/>
      <point x="161" y="0" type="line"/>
      <point x="161" y="634" type="line"/>
      <point x="429" y="634" type="line"/>
      <point x="429" y="713" type="line"/>
      <point x="77" y="713" type="line"/>
    </contour>
  </outline>
</glyph>
<glyph name="Lambda" format="2">
  <advance width="559"/>
  <unicode hex="039B"/>
  <outline>
    <contour>
      <point x="320" y="713" type="line"/>
      <point x="222" y="713" type="line"/>
      <point x="-2" y="0" type="line"/>
      <point x="89" y="0" type="line"/>
      <point x="271" y="599" type="line"/>
      <point x="453" y="0" type="line"/>
      <point x="544" y="0" type="line"/>
    </contour>
  </outline>
</glyph>
<glyph name="Phi" format="2">
  <advance width="678"/>
  <unicode hex="03A6"/>
  <outline>
    <contour>
      <point x="285" y="628" type="line"/>
      <point x="249" y="624"/>
      <point x="216" y="613"/>
      <point x="185" y="597" type="curve" smooth="yes"/>
      <point x="153" y="580"/>
      <point x="126" y="560"/>
      <point x="104" y="537" type="curve" smooth="yes"/>
      <point x="82" y="512"/>
      <point x="66" y="485"/>
      <point x="55" y="455" type="curve" smooth="yes"/>
      <point x="43" y="425"/>
      <point x="37" y="393"/>
      <point x="37" y="361" type="curve" smooth="yes"/>
      <point x="37" y="328"/>
      <point x="43" y="296"/>
      <point x="55" y="266" type="curve" smooth="yes"/>
      <point x="66" y="235"/>
      <point x="82" y="207"/>
      <point x="104" y="183" type="curve" smooth="yes"/>
      <point x="126" y="158"/>
      <point x="153" y="137"/>
      <point x="185" y="121" type="curve" smooth="yes"/>
      <point x="216" y="104"/>
      <point x="249" y="94"/>
      <point x="285" y="91" type="curve"/>
      <point x="285" y="0" type="line"/>
      <point x="372" y="0" type="line"/>
      <point x="372" y="89" type="line"/>
      <point x="408" y="92"/>
      <point x="443" y="102"/>
      <point x="476" y="119" type="curve" smooth="yes"/>
      <point x="508" y="135"/>
      <point x="536" y="155"/>
      <point x="560" y="181" type="curve" smooth="yes"/>
      <point x="582" y="205"/>
      <point x="599" y="233"/>
      <point x="612" y="265" type="curve" smooth="yes"/>
      <point x="624" y="296"/>
      <point x="630" y="328"/>
      <point x="630" y="362" type="curve" smooth="yes"/>
      <point x="630" y="394"/>
      <point x="624" y="426"/>
      <point x="612" y="457" type="curve" smooth="yes"/>
      <point x="599" y="487"/>
      <point x="581" y="515"/>
      <point x="559" y="540" type="curve" smooth="yes"/>
      <point x="536" y="564"/>
      <point x="508" y="584"/>
      <point x="476" y="600" type="curve" smooth="yes"/>
      <point x="443" y="616"/>
      <point x="408" y="625"/>
      <point x="372" y="629" type="curve"/>
      <point x="372" y="713" type="line"/>
      <point x="285" y="713" type="line"/>
    </contour>
    <contour>
      <point x="541" y="363" type="curve" smooth="yes"/>
      <point x="541" y="310"/>
      <point x="525" y="265"/>
      <point x="493" y="229" type="curve" smooth="yes"/>
      <point x="460" y="192"/>
      <point x="420" y="171"/>
      <point x="372" y="166" type="curve"/>
      <point x="372" y="554" type="line"/>
      <point x="419" y="548"/>
      <point x="459" y="527"/>
      <point x="492" y="493" type="curve" smooth="yes"/>
      <point x="524" y="458"/>
      <point x="541" y="415"/>
    </contour>
    <contour>
      <point x="125" y="362" type="curve" smooth="yes"/>
      <point x="125" y="413"/>
      <point x="140" y="456"/>
      <point x="171" y="491" type="curve" smooth="yes"/>
      <point x="201" y="525"/>
      <point x="239" y="545"/>
      <point x="285" y="553" type="curve"/>
      <point x="285" y="167" type="line"/>
      <point x="239" y="173"/>
      <point x="201" y="195"/>
      <point x="171" y="231" type="curve" smooth="yes"/>
      <point x="140" y="266"/>
      <point x="125" y="310"/>
    </contour>
  </outline>
</glyph>
<glyph name="Chi" format="2">
  <advance width="542"/>
  <unicode hex="03A7"/>
  <outline>
    <contour>
      <point x="15" y="0" type="line"/>
      <point x="106" y="0" type="line"/>
      <point x="269" y="288" type="line"/>
      <point x="432" y="0" type="line"/>
      <point x="524" y="0" type="line"/>
      <point x="315" y="374" type="line"/>
      <point x="504" y="713" type="line"/>
      <point x="411" y="713" type="line"/>
      <point x="269" y="459" type="line"/>
      <point x="125" y="713" type="line"/>
      <point x="33" y="713" type="line"/>
      <point x="223" y="374" type="line"/>
    </contour>
  </outline>
</glyph>
<glyph name="Psi" format="2">
  <advance width="611"/>
  <unicode hex="03A8"/>
  <outline>
    <contour>
      <point x="540" y="713" type="line"/>
      <point x="454" y="713" type="line"/>
      <point x="454" y="471" type="line" smooth="yes"/>
      <point x="454" y="447"/>
      <point x="451" y="425"/>
      <point x="447" y="404" type="curve" smooth="yes"/>
      <point x="441" y="382"/>
      <point x="434" y="362"/>
      <point x="426" y="344" type="curve" smooth="yes"/>
      <point x="416" y="326"/>
      <point x="403" y="310"/>
      <point x="389" y="298" type="curve" smooth="yes"/>
      <point x="374" y="285"/>
      <point x="360" y="277"/>
      <point x="347" y="274" type="curve"/>
      <point x="347" y="713" type="line"/>
      <point x="260" y="713" type="line"/>
      <point x="260" y="272" type="line"/>
      <point x="243" y="274"/>
      <point x="227" y="282"/>
      <point x="213" y="295" type="curve" smooth="yes"/>
      <point x="197" y="307"/>
      <point x="185" y="323"/>
      <point x="175" y="342" type="curve" smooth="yes"/>
      <point x="165" y="360"/>
      <point x="159" y="380"/>
      <point x="155" y="402" type="curve" smooth="yes"/>
      <point x="150" y="424"/>
      <point x="148" y="447"/>
      <point x="148" y="471" type="curve" smooth="yes"/>
      <point x="148" y="713" type="line"/>
      <point x="62" y="713" type="line"/>
      <point x="62" y="468" type="line" smooth="yes"/>
      <point x="62" y="439"/>
      <point x="65" y="410"/>
      <point x="71" y="380" type="curve" smooth="yes"/>
      <point x="76" y="349"/>
      <point x="87" y="320"/>
      <point x="103" y="294" type="curve" smooth="yes"/>
      <point x="118" y="267"/>
      <point x="139" y="244"/>
      <point x="166" y="226" type="curve" smooth="yes"/>
      <point x="192" y="206"/>
      <point x="224" y="195"/>
      <point x="260" y="192" type="curve"/>
      <point x="260" y="0" type="line"/>
      <point x="347" y="0" type="line"/>
      <point x="347" y="193" type="line"/>
      <point x="380" y="197"/>
      <point x="410" y="210"/>
      <point x="436" y="230" type="curve" smooth="yes"/>
      <point x="461" y="249"/>
      <point x="481" y="272"/>
      <point x="497" y="299" type="curve" smooth="yes"/>
      <point x="512" y="325"/>
      <point x="523" y="354"/>
      <point x="530" y="384" type="curve" smooth="yes"/>
      <point x="536" y="413"/>
      <point x="540" y="441"/>
      <point x="540" y="468" type="curve" smooth="yes"/>
    </contour>
  </outline>
</glyph>
<glyph name="beta" format="2">
  <advance width="555"/>
  <unicode hex="03B2"/>
  <outline>
    <contour>
      <point x="161" y="75" type="line"/>
      <point x="171" y="59"/>
      <point x="190" y="43"/>
      <point x="216" y="28" type="curve" smooth="yes"/>
      <point x="242" y="12"/>
      <point x="271" y="4"/>
      <point x="305" y="4" type="curve" smooth="yes"/>
      <point x="339" y="4"/>
      <point x="369" y="9"/>
      <point x="396" y="19" type="curve" smooth="yes"/>
      <point x="422" y="28"/>
      <point x="445" y="41"/>
      <point x="463" y="58" type="curve" smooth="yes"/>
      <point x="480" y="75"/>
      <point x="493" y="97"/>
      <point x="503" y="124" type="curve" smooth="yes"/>
      <point x="511" y="150"/>
      <point x="516" y="171"/>
      <point x="517" y="189" type="curve" smooth="yes"/>
      <point x="517" y="224"/>
      <point x="511" y="254"/>
      <point x="501" y="279" type="curve" smooth="yes"/>
      <point x="489" y="303"/>
      <point x="475" y="323"/>
      <point x="458" y="338" type="curve" smooth="yes"/>
      <point x="441" y="352"/>
      <point x="424" y="363"/>
      <point x="406" y="372" type="curve" smooth="yes"/>
      <point x="390" y="378"/>
      <point x="377" y="383"/>
      <point x="367" y="386" type="curve"/>
      <point x="389" y="394"/>
      <point x="411" y="410"/>
      <point x="434" y="433" type="curve" smooth="yes"/>
      <point x="457" y="458"/>
      <point x="470" y="495"/>
      <point x="473" y="545" type="curve" smooth="yes"/>
      <point x="473" y="572"/>
      <point x="468" y="597"/>
      <point x="458" y="620" type="curve" smooth="yes"/>
      <point x="447" y="642"/>
      <point x="432" y="661"/>
      <point x="414" y="677" type="curve" smooth="yes"/>
      <point x="396" y="692"/>
      <point x="375" y="704"/>
      <point x="351" y="713" type="curve" smooth="yes"/>
      <point x="326" y="721"/>
      <point x="300" y="726"/>
      <point x="274" y="726" type="curve" smooth="yes"/>
      <point x="244" y="726"/>
      <point x="216" y="719"/>
      <point x="192" y="707" type="curve" smooth="yes"/>
      <point x="167" y="694"/>
      <point x="146" y="677"/>
      <point x="130" y="656" type="curve" smooth="yes"/>
      <point x="112" y="636"/>
      <point x="99" y="611"/>
      <point x="91" y="583" type="curve" smooth="yes"/>
      <point x="81" y="554"/>
      <point x="77" y="523"/>
      <point x="77" y="491" type="curve" smooth="yes"/>
      <point x="77" y="-160" type="line"/>
      <point x="161" y="-160" type="line"/>
    </contour>
    <contour>
      <point x="305" y="81" type="curve" smooth="yes"/>
      <point x="288" y="81"/>
      <point x="272" y="84"/>
      <point x="256" y="91" type="curve" smooth="yes"/>
      <point x="240" y="97"/>
      <point x="225" y="106"/>
      <point x="212" y="118" type="curve" smooth="yes"/>
      <point x="199" y="130"/>
      <point x="188" y="146"/>
      <point x="179" y="164" type="curve" smooth="yes"/>
      <point x="169" y="182"/>
      <point x="163" y="202"/>
      <point x="161" y="226" type="curve" smooth="yes"/>
      <point x="161" y="490" type="line" smooth="yes"/>
      <point x="161" y="534"/>
      <point x="170" y="571"/>
      <point x="188" y="603" type="curve" smooth="yes"/>
      <point x="206" y="633"/>
      <point x="234" y="649"/>
      <point x="273" y="649" type="curve" smooth="yes"/>
      <point x="307" y="649"/>
      <point x="335" y="639"/>
      <point x="357" y="619" type="curve" smooth="yes"/>
      <point x="378" y="599"/>
      <point x="389" y="572"/>
      <point x="389" y="540" type="curve" smooth="yes"/>
      <point x="389" y="515"/>
      <point x="385" y="495"/>
      <point x="377" y="480" type="curve" smooth="yes"/>
      <point x="369" y="464"/>
      <point x="358" y="452"/>
      <point x="345" y="444" type="curve" smooth="yes"/>
      <point x="332" y="434"/>
      <point x="318" y="427"/>
      <point x="304" y="424" type="curve" smooth="yes"/>
      <point x="289" y="420"/>
      <point x="278" y="418"/>
      <point x="271" y="418" type="curve" smooth="yes"/>
      <point x="218" y="419" type="line"/>
      <point x="218" y="343" type="line"/>
      <point x="265" y="343" type="line" smooth="yes"/>
      <point x="288" y="343"/>
      <point x="309" y="340"/>
      <point x="329" y="336" type="curve" smooth="yes"/>
      <point x="348" y="330"/>
      <point x="365" y="322"/>
      <point x="381" y="310" type="curve" smooth="yes"/>
      <point x="395" y="298"/>
      <point x="407" y="282"/>
      <point x="417" y="263" type="curve" smooth="yes"/>
      <point x="425" y="243"/>
      <point x="430" y="219"/>
      <point x="430" y="191" type="curve" smooth="yes"/>
      <point x="430" y="159"/>
      <point x="419" y="133"/>
      <point x="399" y="113" type="curve" smooth="yes"/>
      <point x="378" y="91"/>
      <point x="347" y="81"/>
    </contour>
  </outline>
</glyph>
<glyph name="iota" format="2">
  <advance width="288"/>
  <unicode hex="03B9"/>
  <outline>
    <contour>
      <point x="146" y="504" type="line"/>
      <point x="61" y="504" type="line"/>
      <point x="61" y="117" type="line" smooth="yes"/>
      <point x="61" y="75"/>
      <point x="72" y="43"/>
      <point x="95" y="22" type="curve" smooth="yes"/>
      <point x="117" y="0"/>
      <point x="151" y="-11"/>
      <point x="195" y="-11" type="curve" smooth="yes"/>
      <point x="205" y="-11"/>
      <point x="215" y="-11"/>
      <point x="227" y="-11" type="curve" smooth="yes"/>
      <point x="237" y="-10"/>
      <point x="250" y="-8"/>
      <point x="266" y="-6" type="curve"/>
      <point x="266" y="69" type="line"/>
      <point x="253" y="65"/>
      <point x="243" y="63"/>
      <point x="235" y="63" type="curve" smooth="yes"/>
      <point x="227" y="61"/>
      <point x="218" y="61"/>
      <point x="209" y="61" type="curve" smooth="yes"/>
      <point x="193" y="61"/>
      <point x="181" y="63"/>
      <point x="173" y="69" type="curve" smooth="yes"/>
      <point x="165" y="74"/>
      <point x="158" y="81"/>
      <point x="154" y="91" type="curve" smooth="yes"/>
      <point x="150" y="101"/>
      <point x="147" y="112"/>
      <point x="147" y="126" type="curve" smooth="yes"/>
      <point x="146" y="139"/>
      <point x="146" y="153"/>
      <point x="146" y="169" type="curve" smooth="yes"/>
    </contour>
  </outline>
</glyph>
<glyph name="xi" format="2">
  <advance width="406"/>
  <unicode hex="03BE"/>
  <outline>
    <contour>
      <point x="149" y="697" type="curve" smooth="yes"/>
      <point x="130" y="686"/>
      <point x="117" y="673"/>
      <point x="111" y="657" type="curve" smooth="yes"/>
      <point x="103" y="640"/>
      <point x="100" y="624"/>
      <point x="100" y="609" type="curve" smooth="yes"/>
      <point x="100" y="589"/>
      <point x="105" y="572"/>
      <point x="116" y="556" type="curve" smooth="yes"/>
      <point x="126" y="539"/>
      <point x="141" y="527"/>
      <point x="163" y="520" type="curve"/>
      <point x="129" y="501"/>
      <point x="98" y="468"/>
      <point x="71" y="422" type="curve" smooth="yes"/>
      <point x="43" y="375"/>
      <point x="29" y="308"/>
      <point x="29" y="221" type="curve" smooth="yes"/>
      <point x="29" y="220" type="line" smooth="yes"/>
      <point x="29" y="180"/>
      <point x="34" y="149"/>
      <point x="44" y="125" type="curve" smooth="yes"/>
      <point x="54" y="101"/>
      <point x="68" y="80"/>
      <point x="86" y="64" type="curve" smooth="yes"/>
      <point x="103" y="48"/>
      <point x="124" y="36"/>
      <point x="148" y="30" type="curve" smooth="yes"/>
      <point x="171" y="22"/>
      <point x="195" y="19"/>
      <point x="220" y="19" type="curve" smooth="yes"/>
      <point x="246" y="19"/>
      <point x="264" y="15"/>
      <point x="273" y="8" type="curve" smooth="yes"/>
      <point x="281" y="0"/>
      <point x="285" y="-16"/>
      <point x="285" y="-41" type="curve" smooth="yes"/>
      <point x="285" y="-60"/>
      <point x="278" y="-73"/>
      <point x="265" y="-81" type="curve" smooth="yes"/>
      <point x="251" y="-87"/>
      <point x="232" y="-91"/>
      <point x="206" y="-91" type="curve" smooth="yes"/>
      <point x="142" y="-91" type="line"/>
      <point x="142" y="-162" type="line"/>
      <point x="208" y="-162" type="line" smooth="yes"/>
      <point x="230" y="-162"/>
      <point x="250" y="-160"/>
      <point x="270" y="-156" type="curve" smooth="yes"/>
      <point x="288" y="-151"/>
      <point x="305" y="-144"/>
      <point x="320" y="-134" type="curve" smooth="yes"/>
      <point x="335" y="-124"/>
      <point x="347" y="-111"/>
      <point x="357" y="-97" type="curve" smooth="yes"/>
      <point x="365" y="-82"/>
      <point x="370" y="-64"/>
      <point x="370" y="-42" type="curve" smooth="yes"/>
      <point x="370" y="-2"/>
      <point x="357" y="29"/>
      <point x="333" y="54" type="curve" smooth="yes"/>
      <point x="307" y="78"/>
      <point x="271" y="90"/>
      <point x="224" y="90" type="curve" smooth="yes"/>
      <point x="208" y="90"/>
      <point x="193" y="92"/>
      <point x="181" y="97" type="curve" smooth="yes"/>
      <point x="168" y="101"/>
      <point x="157" y="108"/>
      <point x="147" y="119" type="curve" smooth="yes"/>
      <point x="137" y="129"/>
      <point x="129" y="142"/>
      <point x="123" y="158" type="curve" smooth="yes"/>
      <point x="117" y="172"/>
      <point x="114" y="193"/>
      <point x="114" y="220" type="curve" smooth="yes"/>
      <point x="114" y="221" type="line" smooth="yes"/>
      <point x="114" y="284"/>
      <point x="120" y="333"/>
      <point x="134" y="368" type="curve" smooth="yes"/>
      <point x="146" y="402"/>
      <point x="164" y="429"/>
      <point x="186" y="449" type="curve" smooth="yes"/>
      <point x="207" y="467"/>
      <point x="231" y="480"/>
      <point x="259" y="486" type="curve" smooth="yes"/>
      <point x="286" y="491"/>
      <point x="317" y="494"/>
      <point x="352" y="494" type="curve"/>
      <point x="352" y="565" type="line"/>
      <point x="341" y="565" type="line" smooth="yes"/>
      <point x="284" y="565"/>
      <point x="244" y="567"/>
      <point x="220" y="573" type="curve" smooth="yes"/>
      <point x="196" y="577"/>
      <point x="184" y="589"/>
      <point x="184" y="609" type="curve" smooth="yes"/>
      <point x="184" y="628"/>
      <point x="197" y="641"/>
      <point x="223" y="647" type="curve" smooth="yes"/>
      <point x="249" y="652"/>
      <point x="291" y="655"/>
      <point x="351" y="655" type="curve"/>
      <point x="351" y="726" type="line"/>
      <point x="298" y="726"/>
      <point x="256" y="723"/>
      <point x="225" y="719" type="curve" smooth="yes"/>
      <point x="193" y="714"/>
      <point x="167" y="707"/>
    </contour>
  </outline>
</glyph>
<glyph name="upsilon" format="2">
  <advance width="494"/>
  <unicode hex="03C5"/>
  <outline>
    <contour>
      <point x="57" y="177" type="line" smooth="yes"/>
      <point x="57" y="125"/>
      <point x="71" y="80"/>
      <point x="100" y="44" type="curve" smooth="yes"/>
      <point x="128" y="7"/>
      <point x="175" y="-11"/>
      <point x="240" y="-11" type="curve" smooth="yes"/>
      <point x="275" y="-11"/>
      <point x="305" y="-4"/>
      <point x="331" y="8" type="curve" smooth="yes"/>
      <point x="356" y="20"/>
      <point x="377" y="37"/>
      <point x="393" y="59" type="curve" smooth="yes"/>
      <point x="409" y="79"/>
      <point x="421" y="102"/>
      <point x="429" y="130" type="curve" smooth="yes"/>
      <point x="436" y="156"/>
      <point x="440" y="184"/>
      <point x="442" y="212" type="curve" smooth="yes"/>
      <point x="446" y="273"/>
      <point x="440" y="329"/>
      <point x="426" y="379" type="curve" smooth="yes"/>
      <point x="411" y="428"/>
      <point x="394" y="474"/>
      <point x="374" y="517" type="curve"/>
      <point x="304" y="490" type="line"/>
      <point x="316" y="464"/>
      <point x="326" y="439"/>
      <point x="334" y="415" type="curve" smooth="yes"/>
      <point x="342" y="390"/>
      <point x="348" y="365"/>
      <point x="354" y="339" type="curve" smooth="yes"/>
      <point x="359" y="313"/>
      <point x="363" y="287"/>
      <point x="365" y="263" type="curve" smooth="yes"/>
      <point x="366" y="237"/>
      <point x="365" y="214"/>
      <point x="362" y="194" type="curve" smooth="yes"/>
      <point x="356" y="154"/>
      <point x="342" y="122"/>
      <point x="320" y="99" type="curve" smooth="yes"/>
      <point x="297" y="75"/>
      <point x="270" y="64"/>
      <point x="238" y="64" type="curve" smooth="yes"/>
      <point x="211" y="64"/>
      <point x="187" y="74"/>
      <point x="167" y="94" type="curve" smooth="yes"/>
      <point x="145" y="114"/>
      <point x="135" y="143"/>
      <point x="135" y="182" type="curve" smooth="yes"/>
      <point x="135" y="504" type="line"/>
      <point x="57" y="504" type="line"/>
    </contour>
  </outline>
</glyph>
<glyph name="uni0401" format="2">
  <advance width="480"/>
  <unicode hex="0401"/>
  <outline>
    <contour>
      <point x="77" y="0" type="line"/>
      <point x="436" y="0" type="line"/>
      <point x="436" y="79" type="line"/>
      <point x="161" y="79" type="line"/>
      <point x="161" y="333" type="line"/>
      <point x="417" y="333" type="line"/>
      <point x="417" y="411" type="line"/>
      <point x="161" y="411" type="line"/>
      <point x="161" y="630" type="line"/>
      <point x="428" y="630" type="line"/>
      <point x="428" y="709" type="line"/>
      <point x="77" y="709" type="line"/>
    </contour>
    <contour>
      <point x="123" y="822" type="line"/>
      <point x="123" y="731" type="line"/>
      <point x="217" y="731" type="line"/>
      <point x="217" y="822" type="line"/>
    </contour>
    <contour>
      <point x="301" y="822" type="line"/>
      <point x="301" y="731" type="line"/>
      <point x="395" y="731" type="line"/>
      <point x="395" y="822" type="line"/>
    </contour>
  </outline>
</glyph>
<glyph name="uni0411" format="2">
  <advance width="536"/>
  <unicode hex="0411"/>
  <outline>
    <contour>
      <point x="76" y="713" type="line"/>
      <point x="76" y="0" type="line"/>
      <point x="273" y="0" type="line" smooth="yes"/>
      <point x="285" y="0"/>
      <point x="299" y="0"/>
      <point x="315" y="2" type="curve" smooth="yes"/>
      <point x="330" y="3"/>
      <point x="344" y="5"/>
      <point x="358" y="9" type="curve" smooth="yes"/>
      <point x="398" y="21"/>
      <point x="431" y="43"/>
      <point x="458" y="75" type="curve" smooth="yes"/>
      <point x="484" y="107"/>
      <point x="498" y="150"/>
      <point x="498" y="205" type="curve" smooth="yes"/>
      <point x="498" y="275"/>
      <point x="476" y="328"/>
      <point x="432" y="363" type="curve" smooth="yes"/>
      <point x="387" y="397"/>
      <point x="324" y="415"/>
      <point x="244" y="415" type="curve" smooth="yes"/>
      <point x="160" y="415" type="line"/>
      <point x="160" y="634" type="line"/>
      <point x="429" y="634" type="line"/>
      <point x="429" y="713" type="line"/>
    </contour>
    <contour>
      <point x="160" y="339" type="line"/>
      <point x="268" y="339" type="line" smooth="yes"/>
      <point x="285" y="339"/>
      <point x="302" y="336"/>
      <point x="320" y="332" type="curve" smooth="yes"/>
      <point x="336" y="326"/>
      <point x="351" y="318"/>
      <point x="365" y="308" type="curve" smooth="yes"/>
      <point x="378" y="297"/>
      <point x="389" y="283"/>
      <point x="398" y="267" type="curve" smooth="yes"/>
      <point x="406" y="250"/>
      <point x="411" y="230"/>
      <point x="412" y="207" type="curve" smooth="yes"/>
      <point x="409" y="157"/>
      <point x="394" y="123"/>
      <point x="367" y="105" type="curve" smooth="yes"/>
      <point x="339" y="86"/>
      <point x="303" y="77"/>
      <point x="261" y="77" type="curve" smooth="yes"/>
      <point x="160" y="77" type="line"/>
    </contour>
  </outline>
</glyph>
<glyph name="uni0418" format="2">
  <advance width="607"/>
  <unicode hex="0418"/>
  <outline>
    <contour>
      <point x="524" y="713" type="line"/>
      <point x="421" y="713" type="line"/>
      <point x="157" y="143" type="line"/>
      <point x="157" y="713" type="line"/>
      <point x="75" y="713" type="line"/>
      <point x="75" y="0" type="line"/>
      <point x="178" y="0" type="line"/>
      <point x="442" y="568" type="line"/>
      <point x="442" y="0" type="line"/>
      <point x="524" y="0" type="line"/>
    </contour>
  </outline>
</glyph>
<glyph name="uni041D" format="2">
  <advance width="598"/>
  <unicode hex="041D"/>
  <outline>
    <contour>
      <point x="79" y="0" type="line"/>
      <point x="164" y="0" type="line"/>
      <point x="164" y="331" type="line"/>
      <point x="434" y="331" type="line"/>
      <point x="434" y="0" type="line"/>
      <point x="520" y="0" type="line"/>
      <point x="520" y="713" type="line"/>
      <point x="434" y="713" type="line"/>
      <point x="434" y="409" type="line"/>
      <point x="164" y="409" type="line"/>
      <point x="164" y="713" type="line"/>
      <point x="79" y="713" type="line"/>
    </contour>
  </outline>
</glyph>
<glyph name="uni0420" format="2">
  <advance width="510"/>
  <unicode hex="0420"/>
  <outline>
    <contour>
      <point x="182" y="288" type="line"/>
      <point x="235" y="288" type="line" smooth="yes"/>
      <point x="263" y="288"/>
      <point x="292" y="291"/>
      <point x="320" y="299" type="curve" smooth="yes"/>
      <point x="347" y="305"/>
      <point x="372" y="317"/>
      <point x="396" y="334" type="curve" smooth="yes"/>
      <point x="418" y="350"/>
      <point x="436" y="373"/>
      <point x="450" y="401" type="curve" smooth="yes"/>
      <point x="464" y="429"/>
      <point x="471" y="463"/>
      <point x="471" y="505" type="curve" smooth="yes"/>
      <point x="471" y="545"/>
      <point x="464" y="578"/>
      <point x="450" y="606" type="curve" smooth="yes"/>
      <point x="436" y="632"/>
      <point x="417" y="654"/>
      <point x="394" y="670" type="curve" smooth="yes"/>
      <point x="371" y="685"/>
      <point x="346" y="696"/>
      <point x="318" y="703" type="curve" smooth="yes"/>
      <point x="289" y="709"/>
      <point x="260" y="713"/>
      <point x="232" y="713" type="curve" smooth="yes"/>
      <point x="66" y="713" type="line"/>
      <point x="66" y="0" type="line"/>
      <point x="148" y="0" type="line"/>
      <point x="148" y="634" type="line"/>
      <point x="233" y="634" type="line" smooth="yes"/>
      <point x="250" y="634"/>
      <point x="268" y="631"/>
      <point x="287" y="627" type="curve" smooth="yes"/>
      <point x="305" y="622"/>
      <point x="321" y="615"/>
      <point x="335" y="605" type="curve" smooth="yes"/>
      <point x="348" y="595"/>
      <point x="360" y="582"/>
      <point x="370" y="566" type="curve" smooth="yes"/>
      <point x="379" y="549"/>
      <point x="384" y="529"/>
      <point x="384" y="505" type="curve" smooth="yes"/>
      <point x="384" y="477"/>
      <point x="379" y="455"/>
      <point x="371" y="439" type="curve" smooth="yes"/>
      <point x="361" y="421"/>
      <point x="350" y="407"/>
      <point x="336" y="396" type="curve" smooth="yes"/>
      <point x="323" y="386"/>
      <point x="308" y="379"/>
      <point x="291" y="375" type="curve" smooth="yes"/>
      <point x="273" y="371"/>
      <point x="254" y="369"/>
      <point x="234" y="369" type="curve" smooth="yes"/>
      <point x="182" y="369" type="line"/>
    </contour>
  </outline>
</glyph>
<glyph name="uni0422" format="2">
  <advance width="480"/>
  <unicode hex="0422"/>
  <outline>
    <contour>
      <point x="198" y="0" type="line"/>
      <point x="282" y="0" type="line"/>
      <point x="282" y="634" type="line"/>
      <point x="468" y="634" type="line"/>
      <point x="468" y="713" type="line"/>
      <point x="12" y="713" type="line"/>
      <point x="12" y="634" type="line"/>
      <point x="198" y="634" type="line"/>
    </contour>
  </outline>
</glyph>
<glyph name="uni0427" format="2">
  <advance width="576"/>
  <unicode hex="0427"/>
  <outline>
    <contour>
      <point x="507" y="713" type="line"/>
      <point x="421" y="713" type="line"/>
      <point x="421" y="492" type="line" smooth="yes"/>
      <point x="421" y="479"/>
      <point x="420" y="467"/>
      <point x="419" y="455" type="curve" smooth="yes"/>
      <point x="417" y="443"/>
      <point x="415" y="431"/>
      <point x="413" y="419" type="curve" smooth="yes"/>
      <point x="401" y="371"/>
      <point x="381" y="336"/>
      <point x="351" y="312" type="curve" smooth="yes"/>
      <point x="320" y="288"/>
      <point x="288" y="276"/>
      <point x="256" y="276" type="curve" smooth="yes"/>
      <point x="218" y="276"/>
      <point x="191" y="290"/>
      <point x="175" y="318" type="curve" smooth="yes"/>
      <point x="159" y="345"/>
      <point x="151" y="380"/>
      <point x="151" y="423" type="curve" smooth="yes"/>
      <point x="151" y="713" type="line"/>
      <point x="63" y="713" type="line"/>
      <point x="63" y="388" type="line" smooth="yes"/>
      <point x="63" y="358"/>
      <point x="67" y="331"/>
      <point x="77" y="308" type="curve" smooth="yes"/>
      <point x="86" y="284"/>
      <point x="99" y="265"/>
      <point x="116" y="249" type="curve" smooth="yes"/>
      <point x="132" y="232"/>
      <point x="152" y="220"/>
      <point x="174" y="212" type="curve" smooth="yes"/>
      <point x="196" y="204"/>
      <point x="219" y="200"/>
      <point x="243" y="200" type="curve" smooth="yes"/>
      <point x="295" y="199"/>
      <point x="339" y="215"/>
      <point x="375" y="248" type="curve" smooth="yes"/>
      <point x="403" y="275"/>
      <point x="418" y="295"/>
      <point x="421" y="307" type="curve"/>
      <point x="421" y="0" type="line"/>
      <point x="507" y="0" type="line"/>
    </contour>
  </outline>
</glyph>
<glyph name="uni042A" format="2">
  <advance width="672"/>
  <unicode hex="042A"/>
  <outline>
    <contour>
      <point x="304" y="435" type="line"/>
      <point x="304" y="713" type="line"/>
      <point x="22" y="713" type="line"/>
      <point x="22" y="634" type="line"/>
      <point x="220" y="634" type="line"/>
      <point x="220" y="0" type="line"/>
      <point x="417" y="0" type="line" smooth="yes"/>
      <point x="429" y="0"/>
      <point x="443" y="0"/>
      <point x="459" y="2" type="curve" smooth="yes"/>
      <point x="474" y="3"/>
      <point x="488" y="5"/>
      <point x="501" y="9" type="curve" smooth="yes"/>
      <point x="541" y="21"/>
      <point x="575" y="44"/>
      <point x="602" y="80" type="curve" smooth="yes"/>
      <point x="628" y="115"/>
      <point x="642" y="160"/>
      <point x="642" y="215" type="curve" smooth="yes"/>
      <point x="642" y="285"/>
      <point x="620" y="339"/>
      <point x="576" y="378" type="curve" smooth="yes"/>
      <point x="531" y="416"/>
      <point x="468" y="435"/>
      <point x="388" y="435" type="curve" smooth="yes"/>
    </contour>
    <contour>
      <point x="304" y="359" type="line"/>
      <point x="411" y="359" type="line" smooth="yes"/>
      <point x="429" y="359"/>
      <point x="446" y="356"/>
      <point x="463" y="350" type="curve" smooth="yes"/>
      <point x="479" y="344"/>
      <point x="494" y="335"/>
      <point x="508" y="323" type="curve" smooth="yes"/>
      <point x="522" y="311"/>
      <point x="533" y="296"/>
      <point x="542" y="279" type="curve" smooth="yes"/>
      <point x="550" y="261"/>
      <point x="555" y="240"/>
      <point x="556" y="217" type="curve" smooth="yes"/>
      <point x="553" y="167"/>
      <point x="538" y="131"/>
      <point x="510" y="110" type="curve" smooth="yes"/>
      <point x="482" y="88"/>
      <point x="446" y="77"/>
      <point x="404" y="77" type="curve" smooth="yes"/>
      <point x="304" y="77" type="line"/>
    </contour>
  </outline>
</glyph>
<glyph name="uni042F" format="2">
  <advance width="537"/>
  <unicode hex="042F"/>
  <outline>
    <contour>
      <point x="347" y="383" type="line"/>
      <point x="301" y="383" type="line" smooth="yes"/>
      <point x="280" y="383"/>
      <point x="261" y="384"/>
      <point x="243" y="388" type="curve" smooth="yes"/>
      <point x="225" y="391"/>
      <point x="209" y="398"/>
      <point x="195" y="409" type="curve" smooth="yes"/>
      <point x="181" y="418"/>
      <point x="169" y="431"/>
      <point x="161" y="447" type="curve" smooth="yes"/>
      <point x="152" y="463"/>
      <point x="148" y="484"/>
      <point x="148" y="512" type="curve" smooth="yes"/>
      <point x="148" y="536"/>
      <point x="152" y="555"/>
      <point x="160" y="571" type="curve" smooth="yes"/>
      <point x="167" y="585"/>
      <point x="177" y="597"/>
      <point x="191" y="607" type="curve" smooth="yes"/>
      <point x="203" y="617"/>
      <point x="218" y="624"/>
      <point x="236" y="628" type="curve" smooth="yes"/>
      <point x="252" y="632"/>
      <point x="270" y="634"/>
      <point x="288" y="634" type="curve" smooth="yes"/>
      <point x="382" y="634" type="line"/>
      <point x="382" y="0" type="line"/>
      <point x="464" y="0" type="line"/>
      <point x="464" y="713" type="line"/>
      <point x="289" y="713" type="line" smooth="yes"/>
      <point x="259" y="713"/>
      <point x="231" y="710"/>
      <point x="204" y="704" type="curve" smooth="yes"/>
      <point x="176" y="698"/>
      <point x="152" y="687"/>
      <point x="131" y="673" type="curve" smooth="yes"/>
      <point x="109" y="658"/>
      <point x="91" y="638"/>
      <point x="79" y="612" type="curve" smooth="yes"/>
      <point x="65" y="586"/>
      <point x="59" y="552"/>
      <point x="59" y="512" type="curve" smooth="yes"/>
      <point x="59" y="461"/>
      <point x="69" y="421"/>
      <point x="91" y="392" type="curve" smooth="yes"/>
      <point x="111" y="362"/>
      <point x="134" y="341"/>
      <point x="160" y="330" type="curve"/>
      <point x="145" y="320"/>
      <point x="130" y="303"/>
      <point x="114" y="279" type="curve" smooth="yes"/>
      <point x="97" y="253"/>
      <point x="85" y="220"/>
      <point x="78" y="180" type="curve" smooth="yes"/>
      <point x="45" y="0" type="line"/>
      <point x="138" y="0" type="line"/>
      <point x="162" y="146" type="line" smooth="yes"/>
      <point x="168" y="189"/>
      <point x="182" y="226"/>
      <point x="204" y="257" type="curve" smooth="yes"/>
      <point x="224" y="287"/>
      <point x="250" y="302"/>
      <point x="281" y="302" type="curve" smooth="yes"/>
      <point x="347" y="302" type="line"/>
    </contour>
  </outline>
</glyph>
<glyph name="uni0435" format="2">
  <advance width="480"/>
  <unicode hex="0435"/>
  <outline>
    <contour>
      <point x="423" y="79" type="line"/>
      <point x="397" y="70"/>
      <point x="375" y="65"/>
      <point x="358" y="63" type="curve" smooth="yes"/>
      <point x="340" y="61"/>
      <point x="328" y="60"/>
      <point x="321" y="60" type="curve" smooth="yes"/>
      <point x="303" y="60"/>
      <point x="284" y="62"/>
      <point x="262" y="66" type="curve" smooth="yes"/>
      <point x="239" y="69"/>
      <point x="223" y="74"/>
      <point x="213" y="80" type="curve" smooth="yes"/>
      <point x="180" y="99"/>
      <point x="157" y="123"/>
      <point x="145" y="153" type="curve" smooth="yes"/>
      <point x="132" y="181"/>
      <point x="124" y="210"/>
      <point x="122" y="239" type="curve"/>
      <point x="437" y="239" type="line"/>
      <point x="437" y="272" type="line" smooth="yes"/>
      <point x="437" y="301"/>
      <point x="434" y="329"/>
      <point x="430" y="357" type="curve" smooth="yes"/>
      <point x="425" y="384"/>
      <point x="416" y="409"/>
      <point x="404" y="432" type="curve" smooth="yes"/>
      <point x="388" y="458"/>
      <point x="367" y="478"/>
      <point x="342" y="494" type="curve" smooth="yes"/>
      <point x="316" y="508"/>
      <point x="288" y="516"/>
      <point x="257" y="516" type="curve" smooth="yes"/>
      <point x="187" y="516"/>
      <point x="133" y="492"/>
      <point x="95" y="445" type="curve" smooth="yes"/>
      <point x="56" y="397"/>
      <point x="37" y="336"/>
      <point x="37" y="263" type="curve" smooth="yes"/>
      <point x="37" y="218"/>
      <point x="43" y="178"/>
      <point x="57" y="144" type="curve" smooth="yes"/>
      <point x="70" y="109"/>
      <point x="86" y="80"/>
      <point x="106" y="58" type="curve" smooth="yes"/>
      <point x="127" y="34"/>
      <point x="155" y="17"/>
      <point x="191" y="6" type="curve" smooth="yes"/>
      <point x="225" y="-5"/>
      <point x="262" y="-11"/>
      <point x="302" y="-11" type="curve" smooth="yes"/>
      <point x="323" y="-11"/>
      <point x="344" y="-9"/>
      <point x="364" y="-6" type="curve" smooth="yes"/>
      <point x="383" y="-2"/>
      <point x="403" y="2"/>
      <point x="423" y="10" type="curve"/>
    </contour>
    <contour>
      <point x="334" y="396" type="curve" smooth="yes"/>
      <point x="341" y="382"/>
      <point x="346" y="367"/>
      <point x="348" y="350" type="curve" smooth="yes"/>
      <point x="349" y="332"/>
      <point x="350" y="319"/>
      <point x="350" y="309" type="curve"/>
      <point x="123" y="309" type="line"/>
      <point x="126" y="349"/>
      <point x="140" y="382"/>
      <point x="165" y="408" type="curve" smooth="yes"/>
      <point x="189" y="432"/>
      <point x="218" y="445"/>
      <point x="254" y="445" type="curve" smooth="yes"/>
      <point x="271" y="445"/>
      <point x="286" y="441"/>
      <point x="300" y="433" type="curve" smooth="yes"/>
      <point x="312" y="424"/>
      <point x="324" y="412"/>
    </contour>
  </outline>
</glyph>
<glyph name="uni0438" format="2">
  <advance width="462"/>
  <unicode hex="0438"/>
  <outline>
    <contour>
      <point x="402" y="504" type="line"/>
      <point x="312" y="504" type="line"/>
      <point x="133" y="135" type="line"/>
      <point x="133" y="504" type="line"/>
      <point x="58" y="504" type="line"/>
      <point x="58" y="0" type="line"/>
      <point x="147" y="0" type="line"/>
      <point x="326" y="371" type="line"/>
      <point x="326" y="0" type="line"/>
      <point x="402" y="0" type="line"/>
    </contour>
  </outline>
</glyph>
<glyph name="uni043C" format="2">
  <advance width="571"/>
  <unicode hex="043C"/>
  <outline>
    <contour>
      <point x="315" y="0" type="line"/>
      <point x="437" y="376" type="line"/>
      <point x="437" y="0" type="line"/>
      <point x="512" y="0" type="line"/>
      <point x="512" y="504" type="line"/>
      <point x="402" y="504" type="line"/>
      <point x="285" y="143" type="line"/>
      <point x="168" y="504" type="line"/>
      <point x="58" y="504" type="line"/>
      <point x="58" y="0" type="line"/>
      <point x="133" y="0" type="line"/>
      <point x="133" y="376" type="line"/>
      <point x="255" y="0" type="line"/>
    </contour>
  </outline>
</glyph>
<glyph name="uni0441" format="2">
  <advance width="466"/>
  <unicode hex="0441"/>
  <outline>
    <contour>
      <point x="423" y="79" type="line"/>
      <point x="397" y="70"/>
      <point x="375" y="65"/>
      <point x="358" y="63" type="curve" smooth="yes"/>
      <point x="340" y="61"/>
      <point x="328" y="60"/>
      <point x="321" y="60" type="curve" smooth="yes"/>
      <point x="303" y="60"/>
      <point x="284" y="62"/>
      <point x="262" y="66" type="curve" smooth="yes"/>
      <point x="239" y="69"/>
      <point x="223" y="74"/>
      <point x="213" y="80" type="curve" smooth="yes"/>
      <point x="193" y="92"/>
      <point x="177" y="106"/>
      <point x="165" y="122" type="curve" smooth="yes"/>
      <point x="153" y="138"/>
      <point x="144" y="155"/>
      <point x="138" y="173" type="curve" smooth="yes"/>
      <point x="131" y="190"/>
      <point x="127" y="208"/>
      <point x="125" y="227" type="curve" smooth="yes"/>
      <point x="123" y="245"/>
      <point x="122" y="262"/>
      <point x="122" y="278" type="curve" smooth="yes"/>
      <point x="122" y="330"/>
      <point x="134" y="371"/>
      <point x="160" y="401" type="curve" smooth="yes"/>
      <point x="185" y="430"/>
      <point x="216" y="445"/>
      <point x="254" y="445" type="curve" smooth="yes"/>
      <point x="270" y="445"/>
      <point x="286" y="442"/>
      <point x="302" y="436" type="curve" smooth="yes"/>
      <point x="318" y="429"/>
      <point x="328" y="422"/>
      <point x="334" y="416" type="curve" smooth="yes"/>
      <point x="340" y="407"/>
      <point x="344" y="397"/>
      <point x="347" y="385" type="curve" smooth="yes"/>
      <point x="349" y="373"/>
      <point x="350" y="359"/>
      <point x="350" y="343" type="curve"/>
      <point x="437" y="343" type="line"/>
      <point x="437" y="370"/>
      <point x="434" y="393"/>
      <point x="429" y="411" type="curve" smooth="yes"/>
      <point x="423" y="429"/>
      <point x="414" y="445"/>
      <point x="404" y="459" type="curve" smooth="yes"/>
      <point x="385" y="480"/>
      <point x="363" y="495"/>
      <point x="338" y="504" type="curve" smooth="yes"/>
      <point x="312" y="512"/>
      <point x="285" y="516"/>
      <point x="257" y="516" type="curve" smooth="yes"/>
      <point x="187" y="516"/>
      <point x="133" y="492"/>
      <point x="95" y="445" type="curve" smooth="yes"/>
      <point x="56" y="397"/>
      <point x="37" y="336"/>
      <point x="37" y="263" type="curve" smooth="yes"/>
      <point x="37" y="218"/>
      <point x="43" y="178"/>
      <point x="57" y="144" type="curve" smooth="yes"/>
      <point x="70" y="109"/>
      <point x="86" y="80"/>
      <point x="106" y="58" type="curve" smooth="yes"/>
      <point x="127" y="34"/>
      <point x="155" y="17"/>
      <point x="191" y="6" type="curve" smooth="yes"/>
      <point x="225" y="-5"/>
      <point x="262" y="-11"/>
      <point x="302" y="-11" type="curve" smooth="yes"/>
      <point x="323" y="-11"/>
      <point x="344" y="-9"/>
      <point x="364" y="-6" type="curve" smooth="yes"/>
      <point x="383" y="-2"/>
      <point x="403" y="2"/>
      <point x="423" y="10" type="curve"/>
    </contour>
  </outline>
</glyph>
<glyph name="uni0447" format="2">
  <advance width="478"/>
  <unicode hex="0447"/>
  <outline>
    <contour>
      <point x="415" y="504" type="line"/>
      <point x="339" y="504" type="line"/>
      <point x="339" y="367" type="line" smooth="yes"/>
      <point x="339" y="357"/>
      <point x="338" y="349"/>
      <point x="338" y="341" type="curve" smooth="yes"/>
      <point x="336" y="333"/>
      <point x="335" y="325"/>
      <point x="334" y="317" type="curve" smooth="yes"/>
      <point x="325" y="284"/>
      <point x="309" y="260"/>
      <point x="286" y="244" type="curve" smooth="yes"/>
      <point x="262" y="227"/>
      <point x="239" y="219"/>
      <point x="217" y="219" type="curve" smooth="yes"/>
      <point x="191" y="219"/>
      <point x="171" y="227"/>
      <point x="158" y="243" type="curve" smooth="yes"/>
      <point x="144" y="258"/>
      <point x="137" y="284"/>
      <point x="137" y="321" type="curve" smooth="yes"/>
      <point x="137" y="504" type="line"/>
      <point x="62" y="504" type="line"/>
      <point x="62" y="296" type="line" smooth="yes"/>
      <point x="62" y="272"/>
      <point x="66" y="250"/>
      <point x="75" y="232" type="curve" smooth="yes"/>
      <point x="83" y="213"/>
      <point x="95" y="197"/>
      <point x="110" y="184" type="curve" smooth="yes"/>
      <point x="124" y="170"/>
      <point x="139" y="160"/>
      <point x="157" y="154" type="curve" smooth="yes"/>
      <point x="173" y="147"/>
      <point x="191" y="144"/>
      <point x="209" y="144" type="curve" smooth="yes"/>
      <point x="229" y="144"/>
      <point x="247" y="147"/>
      <point x="264" y="153" type="curve" smooth="yes"/>
      <point x="280" y="159"/>
      <point x="294" y="166"/>
      <point x="306" y="176" type="curve" smooth="yes"/>
      <point x="320" y="188"/>
      <point x="331" y="200"/>
      <point x="339" y="210" type="curve"/>
      <point x="339" y="0" type="line"/>
      <point x="415" y="0" type="line"/>
    </contour>
  </outline>
</glyph>
<glyph name="uni044F" format="2">
  <advance width="453"/>
  <unicode hex="044F"/>
  <outline>
    <contour>
      <point x="292" y="277" type="line"/>
      <point x="234" y="277" type="line" smooth="yes"/>
      <point x="220" y="277"/>
      <point x="207" y="278"/>
      <point x="195" y="280" type="curve" smooth="yes"/>
      <point x="182" y="282"/>
      <point x="171" y="285"/>
      <point x="162" y="291" type="curve" smooth="yes"/>
      <point x="152" y="296"/>
      <point x="145" y="304"/>
      <point x="139" y="316" type="curve" smooth="yes"/>
      <point x="133" y="327"/>
      <point x="130" y="342"/>
      <point x="130" y="361" type="curve" smooth="yes"/>
      <point x="130" y="376"/>
      <point x="133" y="389"/>
      <point x="139" y="399" type="curve" smooth="yes"/>
      <point x="144" y="409"/>
      <point x="152" y="416"/>
      <point x="162" y="421" type="curve" smooth="yes"/>
      <point x="170" y="425"/>
      <point x="181" y="429"/>
      <point x="194" y="431" type="curve" smooth="yes"/>
      <point x="206" y="432"/>
      <point x="219" y="433"/>
      <point x="231" y="433" type="curve" smooth="yes"/>
      <point x="314" y="433" type="line"/>
      <point x="314" y="0" type="line"/>
      <point x="390" y="0" type="line"/>
      <point x="390" y="504" type="line"/>
      <point x="233" y="504" type="line" smooth="yes"/>
      <point x="209" y="504"/>
      <point x="187" y="502"/>
      <point x="166" y="498" type="curve" smooth="yes"/>
      <point x="144" y="494"/>
      <point x="124" y="486"/>
      <point x="107" y="476" type="curve" smooth="yes"/>
      <point x="88" y="465"/>
      <point x="74" y="450"/>
      <point x="64" y="432" type="curve" smooth="yes"/>
      <point x="54" y="412"/>
      <point x="49" y="389"/>
      <point x="49" y="361" type="curve" smooth="yes"/>
      <point x="49" y="325"/>
      <point x="58" y="296"/>
      <point x="76" y="274" type="curve" smooth="yes"/>
      <point x="93" y="251"/>
      <point x="110" y="236"/>
      <point x="128" y="229" type="curve"/>
      <point x="118" y="223"/>
      <point x="106" y="212"/>
      <point x="92" y="196" type="curve" smooth="yes"/>
      <point x="77" y="179"/>
      <point x="67" y="156"/>
      <point x="63" y="128" type="curve" smooth="yes"/>
      <point x="39" y="0" type="line"/>
      <point x="123" y="0" type="line"/>
      <point x="140" y="104" type="line" smooth="yes"/>
      <point x="145" y="139"/>
      <point x="157" y="165"/>
      <point x="175" y="181" type="curve" smooth="yes"/>
      <point x="193" y="196"/>
      <point x="223" y="204"/>
      <point x="267" y="204" type="curve" smooth="yes"/>
      <point x="292" y="204" type="line"/>
    </contour>
  </outline>
</glyph>
